<svg version="1.1" id="Layer_1" xmlns="http://www.w3.org/2000/svg" xmlns:xlink="http://www.w3.org/1999/xlink" x="0px" y="0px"
	 width="100%" viewBox="0 0 1024 1024" enable-background="new 0 0 1024 1024" xml:space="preserve">
<path fill="#FEFEFE" opacity="1.000000" stroke="none" 
	d="
M577.000000,1025.000000 
	C384.666656,1025.000000 192.833328,1025.000000 1.000000,1025.000000 
	C1.000000,683.666687 1.000000,342.333344 1.000000,1.000000 
	C342.333344,1.000000 683.666687,1.000000 1025.000000,1.000000 
	C1025.000000,342.333344 1025.000000,683.666687 1025.000000,1025.000000 
	C875.833313,1025.000000 726.666687,1025.000000 577.000000,1025.000000 
M239.456558,464.348816 
	C239.170441,464.927277 238.884323,465.505768 238.365448,466.342010 
	C238.244293,466.595367 238.279373,466.826538 238.499863,467.036194 
	C238.499863,467.036194 238.528503,467.030396 238.992371,466.193237 
	C238.000244,465.848816 237.008118,465.504364 235.305161,465.106140 
	C231.150925,466.164581 231.150925,466.164581 232.016052,463.528870 
	C236.864868,459.976379 239.432037,453.204041 247.040512,453.348633 
	C248.180801,453.370300 250.277771,450.220642 250.300079,448.516632 
	C250.322021,446.842010 248.608414,444.471100 247.016266,443.655884 
	C245.672134,442.967682 242.185455,443.516815 241.755066,444.470062 
	C238.981827,450.612213 232.927246,450.867920 227.877335,452.783325 
	C223.828506,454.319092 219.741776,456.673401 215.135162,453.873169 
	C214.291183,453.360107 212.640961,454.173309 210.663086,454.484375 
	C214.055710,456.218506 216.474518,457.454865 218.808060,458.647644 
	C224.893127,456.619812 231.236420,454.505890 237.579697,452.391998 
	C237.844437,452.771820 238.109161,453.151611 238.373886,453.531403 
	C235.186691,456.780029 232.035263,460.065430 228.773804,463.237701 
	C228.282578,463.715546 227.276733,463.834839 226.510071,463.831818 
	C220.544571,463.808319 220.453079,463.890900 221.938278,469.452606 
	C222.360931,471.035278 222.844162,472.601807 223.299591,474.175720 
	C223.659515,473.871704 224.019440,473.567657 224.379364,473.263641 
	C226.268219,474.920441 228.441513,476.351959 229.975998,478.289429 
	C232.028519,480.880829 233.385468,484.017395 235.394867,486.649811 
	C240.577774,493.439545 239.376831,497.369995 230.383026,497.331635 
	C230.218338,497.330933 230.051498,497.836365 229.320496,499.023376 
	C232.463730,499.023376 235.101273,499.023376 238.384369,499.023376 
	C236.023972,503.087219 234.215576,506.200684 232.407166,509.314148 
	C236.386307,506.947876 239.232193,503.867676 242.719376,501.959351 
	C247.693420,499.237274 249.413910,506.583466 254.094025,506.268311 
	C252.825638,504.152985 250.871490,502.677917 249.704483,500.731018 
	C248.914352,499.412842 248.641678,496.177582 249.144424,495.941223 
	C253.915268,493.698029 258.771637,490.956970 263.862762,490.263794 
	C269.074677,489.554108 271.787048,487.855255 272.828094,482.571777 
	C273.400665,479.666016 275.620270,477.038177 277.387848,474.486267 
	C277.565704,474.229462 280.223450,475.024750 280.905090,475.943878 
	C281.847046,477.213867 282.004852,479.065491 282.498505,480.667999 
	C282.976593,480.586792 283.454681,480.505615 283.932770,480.424408 
	C283.932770,479.103607 284.199097,477.714691 283.881866,476.475098 
	C283.002258,473.038208 284.220642,471.700592 288.114899,472.752228 
	C289.860535,474.250427 291.606171,475.748657 294.074585,477.867218 
	C294.771484,477.867218 296.618744,478.098938 298.374481,477.797455 
	C299.916229,477.532684 301.355377,476.670441 302.839844,476.072113 
	C301.879395,474.405914 300.918945,472.739746 299.536438,470.251404 
	C299.618744,468.605743 299.527985,466.926117 299.841675,465.325806 
	C300.066986,464.176361 300.832581,463.132782 301.357147,462.041962 
	C302.323853,462.536713 303.462158,462.845978 304.229675,463.556030 
	C309.511322,468.442230 316.640259,472.320862 313.299438,482.477539 
	C315.654968,481.237457 316.708679,480.682739 317.511017,480.260345 
	C318.740051,481.909546 319.840424,483.386169 320.694275,484.531952 
	C321.662811,481.692719 322.269318,479.253845 323.310120,477.017029 
	C324.917603,473.562225 323.225220,468.779419 320.009003,469.437775 
	C313.973999,470.673187 311.529358,466.254669 307.982513,463.474854 
	C305.674713,461.666168 303.754028,459.852112 304.078857,456.140503 
	C304.397003,452.505219 300.191559,450.112488 296.957550,452.079926 
	C293.889496,453.946381 291.432800,453.231018 288.601440,452.204834 
	C286.901947,451.588867 285.084564,451.298035 282.803925,450.421265 
	C281.524475,450.059906 280.244995,449.698517 278.423553,449.068573 
	C278.026276,449.015442 277.629028,448.962311 276.937439,448.546539 
	C276.673492,448.322693 276.379974,448.272705 275.490784,448.150299 
	C275.289276,448.108582 275.087738,448.066895 274.687927,447.548889 
	C274.490997,447.268250 274.294098,446.987579 274.128967,445.979156 
	C272.296875,444.656158 270.599854,442.663116 268.583038,442.256531 
	C267.334747,442.004852 264.724304,443.878937 264.261139,445.299469 
	C263.201599,448.549133 263.084961,452.106201 262.565338,455.545227 
	C262.210327,455.686707 261.855316,455.828186 261.469971,455.099304 
	C260.959229,455.201172 260.448486,455.303070 259.615234,455.522644 
	C259.401306,455.636932 259.256744,455.809479 258.323517,455.891296 
	C253.338776,454.529877 251.350159,457.651733 249.405365,461.622925 
	C249.405365,461.622925 249.004974,461.879608 248.241730,461.910980 
	C246.665665,462.598419 245.089600,463.285858 243.179291,463.921967 
	C242.952942,463.906219 242.728424,463.920135 241.777313,463.754913 
	C241.535675,463.828400 241.294022,463.901917 240.901428,463.809723 
	C240.641891,463.719421 240.486557,463.799927 239.456558,464.348816 
M183.732864,531.570557 
	C183.459137,531.475586 183.185410,531.380554 182.911697,531.285583 
	C182.902267,531.495911 182.892838,531.706238 182.883408,531.916565 
	C183.275833,531.915771 183.668274,531.914978 183.721436,532.570557 
	C191.119537,539.974548 199.546844,545.794312 209.677185,548.742615 
	C221.108887,552.069580 231.927124,550.461243 241.295242,543.029236 
	C246.203171,539.135681 250.716629,534.549927 254.649765,529.665894 
	C261.424591,521.253174 267.160492,511.984802 274.136780,503.757568 
	C286.267578,489.451538 299.483429,486.273285 317.122772,492.752716 
	C321.872711,494.497467 326.318817,497.069275 330.904388,499.261414 
	C327.982452,495.629120 324.535278,492.626953 320.808441,490.025391 
	C305.571930,479.389404 286.244751,480.034332 272.414062,492.414398 
	C266.409210,497.789429 261.600616,504.546722 256.514160,510.889069 
	C251.418625,517.242737 247.032349,524.194580 241.665894,530.295471 
	C230.426910,543.072632 217.437439,546.180176 201.583008,540.143799 
	C195.561996,537.851440 189.848709,534.750793 183.732864,531.570557 
M766.538940,539.270020 
	C768.978699,539.270020 771.418457,539.270020 774.159668,539.270020 
	C774.159668,533.015503 774.159668,527.226746 774.159668,521.482361 
	C785.265198,520.085266 785.266357,520.084534 790.791504,528.855652 
	C792.564270,531.669800 794.226440,534.562195 796.153687,537.265869 
	C796.817383,538.196838 798.108093,539.199585 799.155579,539.248718 
	C803.744690,539.463928 808.349548,539.341370 813.434509,539.341370 
	C808.733459,532.235229 804.471619,525.793152 800.129456,519.229614 
	C801.038452,518.558899 801.542542,518.156982 802.075623,517.798096 
	C810.454346,512.156860 812.560364,504.031036 811.001038,494.630646 
	C809.700562,486.790894 803.506104,480.170166 794.583191,479.441193 
	C783.231384,478.513885 771.746399,479.216644 760.397705,479.216644 
	C760.397705,499.097839 760.397705,518.998108 760.397705,539.265320 
	C762.358765,539.265320 764.002319,539.265320 766.538940,539.270020 
M400.986359,539.432251 
	C410.971497,539.270569 421.027802,539.799500 430.924530,538.779907 
	C444.624908,537.368347 454.374695,527.442749 456.023346,514.823914 
	C458.054565,499.277100 451.850739,486.661102 439.056335,481.483521 
	C426.122467,476.249542 412.587830,479.413696 399.001038,478.548950 
	C399.001038,498.702789 398.990143,518.017273 399.046906,537.331543 
	C399.048859,537.997192 399.727386,538.660950 400.986359,539.432251 
M544.642761,519.881348 
	C545.824646,520.736450 547.006470,521.591614 548.226440,522.474243 
	C540.773804,528.753174 540.403809,531.225342 545.924377,537.595886 
	C541.864441,539.061707 538.164734,540.901184 538.035645,545.980286 
	C537.927612,550.229370 540.050781,553.255310 543.516663,555.416870 
	C552.504761,561.022522 571.409607,560.290588 579.795776,553.957764 
	C584.301208,550.555359 586.125488,546.044250 585.092041,540.372314 
	C584.083801,534.838440 580.369507,531.986206 575.339050,531.009521 
	C571.132080,530.192749 566.736694,530.400391 562.460693,529.866394 
	C559.666382,529.517578 555.888855,531.426453 554.583923,526.946045 
	C557.031860,526.275635 559.444092,525.267395 561.935059,525.003601 
	C567.488770,524.415283 572.774292,523.433899 576.982300,519.325806 
	C582.030579,514.397278 581.669373,508.493042 579.787964,502.292633 
	C581.790649,502.028992 583.385803,501.819031 585.015015,501.604553 
	C585.015015,498.757690 585.015015,496.178406 585.015015,493.180786 
	C578.723206,493.180786 572.754944,493.040375 566.796631,493.223450 
	C561.677002,493.380798 556.357727,493.121307 551.497009,494.425964 
	C539.447754,497.660065 536.025085,509.961670 544.642761,519.881348 
M196.401154,444.859100 
	C253.422546,397.031219 342.410400,429.109802 351.639923,508.063171 
	C353.359589,508.063171 355.111420,508.063171 356.853821,508.063171 
	C359.098969,463.525299 311.416168,417.764069 261.143707,416.240631 
	C201.541245,414.434418 160.755127,460.890015 157.363998,507.934387 
	C159.422455,507.934387 161.466171,507.934387 163.536819,507.934387 
	C166.181824,482.599060 177.098770,461.921906 196.401154,444.859100 
M824.846558,519.183594 
	C822.013000,525.654358 819.179443,532.125183 816.049072,539.273743 
	C820.596680,539.273743 824.554565,539.405518 828.492188,539.181335 
	C829.478394,539.125183 831.115906,538.037048 831.241760,537.233215 
	C832.818665,527.167358 839.613037,526.086182 847.877686,527.184753 
	C849.673889,527.423462 851.531372,527.198120 853.360657,527.190002 
	C862.702393,527.148560 862.625488,527.182556 866.374634,535.772156 
	C866.976746,537.151550 868.526428,538.928467 869.789124,539.058838 
	C873.858032,539.479004 877.997498,539.215454 882.621033,539.215454 
	C882.020813,537.717773 881.693542,536.836426 881.318726,535.975891 
	C874.227234,519.693176 866.800659,503.544891 860.198669,487.066223 
	C857.609436,480.603424 854.464539,477.564880 847.221375,478.450378 
	C843.780273,478.871033 841.960327,479.683960 840.615234,482.864899 
	C835.573669,494.787262 830.285767,506.605469 824.846558,519.183594 
M304.414307,596.056580 
	C278.929749,610.118896 252.185623,613.007690 224.947922,602.826538 
	C189.605209,589.615723 170.016312,562.947266 163.604202,526.058472 
	C161.586304,526.166565 159.986130,526.252258 158.396667,526.337402 
	C159.025635,550.906738 176.072845,584.142212 206.592056,601.008789 
	C243.112518,621.192078 279.474426,619.933228 314.254425,596.923279 
	C339.275024,580.370056 353.400238,556.598694 356.827362,526.423584 
	C354.462219,526.423584 352.843475,526.423584 350.889282,526.423584 
	C346.553833,556.839905 330.936188,579.702881 304.414307,596.056580 
M202.891357,478.090118 
	C199.795914,489.622650 196.700470,501.155182 193.502258,513.070557 
	C178.045822,513.070557 162.833344,513.070557 147.829468,513.070557 
	C147.829468,516.278442 147.829468,518.993591 147.829468,521.836548 
	C164.064346,521.836548 180.034149,521.798096 196.003494,521.866577 
	C199.513794,521.881714 201.082016,519.973022 201.882004,516.928772 
	C203.613525,510.339783 205.352814,503.752747 207.116867,497.172394 
	C208.193619,493.155884 209.322296,489.153320 210.427643,485.144470 
	C210.839035,485.165070 211.250412,485.185669 211.661789,485.206268 
	C216.477798,502.167328 221.293823,519.128418 226.229019,536.509277 
	C236.218460,530.734680 242.611343,522.455078 248.793518,513.627441 
	C235.120224,509.918915 237.458420,522.054810 233.519989,528.512573 
	C232.943665,526.792297 232.485855,525.615112 232.152893,524.403625 
	C226.780640,504.857361 221.423828,485.306885 216.064758,465.757019 
	C215.292770,462.940826 214.277130,459.587311 210.810562,460.407043 
	C208.879333,460.863708 206.925751,463.588867 206.075089,465.726593 
	C204.613907,469.398529 204.008102,473.410858 202.891357,478.090118 
M311.084869,552.900757 
	C313.861877,542.671753 316.638885,532.442749 319.522552,521.820801 
	C335.579163,521.820801 351.482361,521.820801 367.169403,521.820801 
	C367.169403,518.585022 367.169403,515.827759 367.169403,512.911194 
	C350.274658,512.911194 333.635620,512.927795 316.996643,512.898621 
	C313.200104,512.891968 311.872131,515.310669 311.071991,518.462463 
	C309.599548,524.262329 308.078217,530.050049 306.534607,535.831482 
	C305.281372,540.525452 303.965698,545.202820 302.677734,549.887512 
	C302.201813,549.890930 301.725891,549.894348 301.249969,549.897705 
	C296.549927,532.811768 291.849884,515.725769 287.149841,498.639801 
	C286.598785,498.469238 286.047729,498.298676 285.496704,498.128113 
	C278.987732,505.624146 272.478790,513.120117 265.969849,520.616150 
	C266.492065,521.364746 267.014282,522.113342 267.536530,522.862000 
	C270.603882,521.565063 274.545258,521.026062 276.503845,518.767578 
	C278.655334,516.286621 278.980804,512.222107 280.425293,507.874115 
	C286.113342,528.617554 291.514191,548.318115 296.918671,568.017761 
	C297.707184,570.891846 298.081146,574.241577 302.219452,574.063782 
	C306.222534,573.891846 306.552643,570.623718 307.285278,567.702087 
	C308.457733,563.026733 309.717438,558.373230 311.084869,552.900757 
M261.286163,538.961548 
	C257.421417,540.040466 253.274750,540.571411 249.779892,542.369385 
	C246.916534,543.842407 244.492889,546.568237 242.487381,549.205017 
	C240.228302,552.175232 238.655914,555.667786 236.175507,559.996521 
	C234.184845,556.650024 233.042221,554.729126 231.400391,551.969055 
	C230.920609,553.627502 230.706604,554.190063 230.599274,554.772217 
	C230.306213,556.362122 230.058121,557.960327 229.792191,559.555237 
	C227.736984,559.028687 224.337753,559.040955 223.871292,557.877441 
	C222.289536,553.932007 219.170166,555.027527 216.501740,554.772217 
	C215.200729,554.647827 212.788269,555.101685 212.683777,555.642517 
	C212.404037,557.090332 212.556717,559.330200 213.503265,560.181091 
	C217.169022,563.476196 215.517349,566.551880 213.705688,570.516785 
	C206.914261,564.882751 198.138382,561.291016 201.373306,549.268433 
	C199.280640,550.604736 198.156204,551.322815 197.191803,551.938660 
	C196.012497,549.862488 195.036911,548.144958 194.239319,546.740784 
	C193.089737,549.793884 192.181961,552.552246 191.021408,555.199829 
	C189.541306,558.576355 191.385025,563.064636 194.917297,562.609741 
	C201.651993,561.742371 204.587585,566.797302 208.727951,569.978027 
	C209.774872,570.782349 210.418137,572.646240 210.506348,574.069153 
	C210.835739,579.382141 214.101822,581.362061 218.934875,579.251770 
	C220.538544,578.551514 222.621597,578.381653 224.358810,578.687927 
	C226.954269,579.145508 229.448730,580.206726 231.966049,581.069824 
	C235.770248,582.374084 239.964737,582.806213 241.717865,587.638000 
	C242.156723,588.847473 245.742386,590.037598 247.186951,589.469543 
	C248.909210,588.792358 250.737152,586.341125 251.022537,584.434448 
	C251.888290,578.650452 253.747269,576.677246 259.431763,576.366333 
	C260.893372,576.286377 262.967743,575.438354 263.610962,574.295898 
	C268.039917,566.429810 276.151093,569.510498 282.541779,567.297119 
	C278.337708,571.710571 276.620178,578.811157 268.632904,578.502991 
	C267.203033,578.447815 264.587189,581.327942 264.461761,582.998596 
	C264.333435,584.707275 266.303314,587.700134 267.884918,588.116516 
	C269.731628,588.602600 272.327515,587.210327 274.278015,586.080200 
	C276.523163,584.779236 278.197723,582.386169 280.514191,581.339966 
	C284.436951,579.568237 288.686584,578.530212 292.756714,577.066650 
	C293.597107,576.764404 294.252960,575.948914 294.993866,575.369995 
	C294.799622,574.985779 294.605408,574.601562 294.411163,574.217346 
	C288.727966,575.921692 283.044769,577.626038 277.361572,579.330383 
	C277.151764,578.903503 276.941925,578.476562 276.732117,578.049622 
	C282.051605,575.225708 283.270050,566.780762 292.403900,568.737366 
	C291.362213,564.866821 291.128906,561.347412 289.523590,558.642212 
	C286.968201,554.336182 283.307251,550.703918 280.456604,546.551514 
	C275.096313,538.743530 275.198517,538.674744 282.674408,534.650330 
	C282.753937,534.607483 282.720337,534.354431 282.815369,533.588257 
	C280.931641,533.283264 279.013153,532.972656 276.830353,532.619202 
	C278.210876,529.837463 279.412628,527.415894 280.886963,524.445129 
	C277.245483,526.768860 274.656006,529.573853 271.758881,529.939209 
	C268.974243,530.290405 265.871002,528.115784 262.156677,526.781067 
	C262.657410,527.958862 262.861420,529.233398 263.590332,530.023926 
	C268.277954,535.107666 268.198547,535.723755 261.286163,538.961548 
M719.959961,502.563080 
	C719.959961,498.588928 719.959961,494.614777 719.959961,490.202942 
	C730.502808,490.202942 740.602478,490.202942 750.717041,490.202942 
	C750.717041,486.163361 750.717041,482.570221 750.717041,478.788086 
	C735.685608,478.788086 720.937012,478.788086 706.168518,478.788086 
	C706.168518,499.034149 706.168518,518.977478 706.168518,539.029053 
	C710.841736,539.029053 715.271912,539.029053 720.099976,539.029053 
	C720.099976,531.487000 720.099976,524.210571 720.099976,516.398315 
	C729.721069,516.398315 738.950745,516.398315 748.101196,516.398315 
	C748.101196,512.260437 748.101196,508.679138 748.101196,504.846252 
	C739.950317,504.846252 732.142456,504.909302 724.337341,504.789246 
	C722.898254,504.767151 721.470459,504.004089 719.959961,502.563080 
M529.490356,514.649292 
	C529.437683,512.985962 529.447510,511.317963 529.322266,509.660126 
	C528.519714,499.031067 523.176270,493.595642 512.455872,493.209900 
	C507.850067,493.044159 503.017761,493.215820 498.619476,494.431732 
	C488.187988,497.315674 488.413300,496.587067 492.243408,506.528656 
	C498.094818,505.576660 503.712341,504.108276 509.374695,503.908386 
	C514.338928,503.733093 516.054626,506.542389 515.506592,512.082703 
	C512.408997,512.082703 509.243225,511.833313 506.135468,512.151062 
	C502.859589,512.485962 499.494446,512.966003 496.424988,514.086060 
	C490.298218,516.321777 486.871735,521.789856 487.387939,527.566284 
	C487.952026,533.878845 492.121155,538.532959 498.617065,539.940002 
	C506.048462,541.549744 512.351135,539.368896 517.637024,533.690857 
	C519.663269,538.680481 523.479919,540.303406 528.172974,539.959045 
	C529.930542,539.830017 533.068909,538.878906 533.097778,538.197571 
	C533.229187,535.093018 532.682739,531.903015 531.963379,528.841614 
	C531.568176,527.159485 529.855713,525.744019 529.609680,524.079346 
	C529.200256,521.309692 529.492615,518.436218 529.490356,514.649292 
M690.473816,531.924622 
	C697.085449,523.970215 697.291870,515.170166 693.322327,506.177612 
	C689.226562,496.899048 681.360596,493.242706 671.616760,492.979706 
	C661.651489,492.710693 653.644836,496.222351 648.886536,505.365997 
	C643.452698,515.807800 646.325317,528.953735 655.256653,535.531433 
	C665.550232,543.112427 680.764343,541.756104 690.473816,531.924622 
M606.464111,531.355835 
	C606.463379,526.030640 606.279297,520.697510 606.508423,515.382263 
	C606.794067,508.756775 611.217529,504.583313 617.298828,504.788239 
	C622.507751,504.963715 624.458252,507.579071 624.567993,515.080139 
	C624.684265,523.028687 624.594055,530.980286 624.594055,539.182495 
	C629.420044,539.182495 633.516235,539.182495 637.839844,539.182495 
	C637.839844,527.996094 638.364258,517.022400 637.664734,506.127289 
	C637.155579,498.197052 631.109558,493.577454 623.089966,493.064484 
	C616.407837,492.637085 610.806458,494.903107 606.179321,500.205688 
	C605.593323,497.858734 605.156128,496.107697 604.708191,494.313629 
	C600.808167,494.313629 597.060974,494.313629 593.134888,494.313629 
	C593.134888,509.372894 593.134888,524.119385 593.134888,539.053955 
	C597.595886,539.053955 601.816650,539.053955 606.466614,539.053955 
	C606.466614,536.575745 606.466614,534.441284 606.464111,531.355835 
M467.921387,539.447510 
	C471.658295,539.447510 475.395172,539.447510 479.057526,539.447510 
	C479.057526,523.991211 479.057526,509.407135 479.057526,494.650696 
	C474.553314,494.650696 470.354919,494.650696 465.908813,494.650696 
	C465.908813,509.140503 465.893677,523.252197 465.956390,537.363525 
	C465.959320,538.023865 466.656311,538.681152 467.921387,539.447510 
M296.783783,507.842407 
	C296.312073,509.011719 295.475891,510.166779 295.429504,511.352722 
	C295.180206,517.723267 301.315765,518.540710 305.210449,522.996826 
	C305.013062,521.020935 305.208557,520.083679 304.830902,519.670593 
	C302.523315,517.146973 302.087463,514.620117 303.893372,511.545959 
	C305.667572,508.525848 307.897400,509.365601 310.680664,509.518585 
	C312.579529,509.622955 316.201691,507.185059 316.279938,505.734253 
	C316.454559,502.497437 314.892151,499.166931 313.897339,495.334717 
	C312.574066,496.756866 311.741241,497.651917 311.061157,498.382843 
	C309.444183,496.915253 307.987244,495.592896 307.369659,495.032349 
	C306.730072,499.031158 306.727448,503.056091 305.355713,506.542236 
	C303.861816,510.338684 300.219452,507.659241 296.783783,507.842407 
M217.281296,522.375000 
	C214.512314,518.599060 211.743332,514.823120 208.974350,511.047180 
	C208.387344,511.466461 207.800323,511.885712 207.213318,512.304993 
	C208.991348,514.768982 210.722214,517.268799 212.558823,519.688416 
	C215.109467,523.048767 214.414581,524.864441 211.040680,527.353516 
	C205.976944,531.089233 201.883759,527.755615 197.517532,526.083557 
	C196.755814,528.420044 196.074631,530.509460 195.198181,533.197815 
	C198.630219,534.587158 201.858932,535.894226 205.827209,537.500671 
	C205.183289,531.898743 208.610092,530.539490 212.084564,529.770386 
	C219.441406,528.141907 216.589417,535.424805 219.249390,538.286682 
	C220.709213,532.890137 218.991852,527.996216 217.281296,522.375000 
M476.392853,488.246185 
	C476.945740,487.890015 477.563416,487.604492 478.041077,487.166321 
	C481.286774,484.188934 481.159424,480.575714 479.061005,477.289642 
	C476.805023,473.756958 473.090912,473.435303 469.352814,474.720947 
	C465.728363,475.967499 464.213959,478.858032 464.616577,482.491516 
	C465.067688,486.562164 467.981232,488.360748 471.752838,488.836090 
	C473.028168,488.996796 474.365631,488.664581 476.392853,488.246185 
M322.432709,552.763489 
	C324.399780,551.576538 327.241638,550.802979 328.059082,549.072937 
	C328.722015,547.669861 326.987305,545.104980 326.251495,543.078796 
	C325.622986,541.348206 324.456543,539.686768 324.315247,537.931458 
	C324.013916,534.187012 324.223114,530.401489 324.223114,526.632874 
	C323.590607,526.555298 322.958069,526.477722 322.325562,526.400146 
	C322.825562,537.846497 318.502930,547.950745 313.921204,558.486633 
	C316.859344,556.234314 319.255463,554.397522 322.432709,552.763489 
M197.881592,479.101685 
	C198.111755,478.406525 198.341919,477.711395 198.338272,477.722382 
	C195.367279,478.727325 192.377487,479.845154 189.323502,480.745209 
	C185.330185,481.922150 184.225433,485.933533 186.513107,489.466614 
	C187.996628,491.757874 188.996536,494.554504 189.469772,497.254974 
	C189.968018,500.098175 189.581375,503.096405 189.581375,506.026917 
	C190.099014,506.045013 190.616638,506.063080 191.134277,506.081177 
	C191.433136,502.589752 191.652512,499.088837 192.067673,495.611298 
	C192.248550,494.096222 192.699768,492.576935 193.264969,491.153625 
	C193.945526,489.439789 195.018631,487.878754 195.665192,486.155304 
	C196.447845,484.069092 196.961945,481.882141 197.881592,479.101685 
M134.416229,523.418823 
	C137.838150,524.680176 141.211166,524.099670 142.438004,520.728027 
	C143.239227,518.526123 142.803223,514.971313 141.444016,513.089844 
	C139.199081,509.982147 135.628204,510.167847 132.686996,512.791626 
	C129.557800,515.583130 130.010788,519.264038 134.416229,523.418823 
M377.610840,523.929199 
	C381.162598,523.766541 384.150665,522.114746 384.070709,518.532715 
	C384.019165,516.225220 382.306915,513.012024 380.384094,511.974609 
	C378.718658,511.076141 375.101135,511.929504 373.415283,513.311951 
	C369.542419,516.487732 371.323181,521.389526 377.610840,523.929199 
z"/>
<path fill="#1B275A" opacity="1.000000" stroke="none" 
	d="
M766.092407,539.267700 
	C764.002319,539.265320 762.358765,539.265320 760.397705,539.265320 
	C760.397705,518.998108 760.397705,499.097839 760.397705,479.216644 
	C771.746399,479.216644 783.231384,478.513885 794.583191,479.441193 
	C803.506104,480.170166 809.700562,486.790894 811.001038,494.630646 
	C812.560364,504.031036 810.454346,512.156860 802.075623,517.798096 
	C801.542542,518.156982 801.038452,518.558899 800.129456,519.229614 
	C804.471619,525.793152 808.733459,532.235229 813.434509,539.341370 
	C808.349548,539.341370 803.744690,539.463928 799.155579,539.248718 
	C798.108093,539.199585 796.817383,538.196838 796.153687,537.265869 
	C794.226440,534.562195 792.564270,531.669800 790.791504,528.855652 
	C785.266357,520.084534 785.265198,520.085266 774.159668,521.482361 
	C774.159668,527.226746 774.159668,533.015503 774.159668,539.270020 
	C771.418457,539.270020 768.978699,539.270020 766.092407,539.267700 
M796.031189,494.851929 
	C789.886108,487.339630 781.730408,491.378204 774.083191,490.316101 
	C774.083191,494.061432 774.083252,497.049561 774.083252,500.037720 
	C774.083252,503.142334 774.083191,506.246918 774.083191,509.821533 
	C778.363586,509.821533 781.990906,509.860901 785.617126,509.813965 
	C795.219543,509.689636 798.766296,504.981873 796.031189,494.851929 
z"/>
<path fill="#24A1EE" opacity="1.000000" stroke="none" 
	d="
M400.538452,539.378906 
	C399.727386,538.660950 399.048859,537.997192 399.046906,537.331543 
	C398.990143,518.017273 399.001038,498.702789 399.001038,478.548950 
	C412.587830,479.413696 426.122467,476.249542 439.056335,481.483521 
	C451.850739,486.661102 458.054565,499.277100 456.023346,514.823914 
	C454.374695,527.442749 444.624908,537.368347 430.924530,538.779907 
	C421.027802,539.799500 410.971497,539.270569 400.538452,539.378906 
M441.205078,502.717529 
	C437.115570,491.900330 429.417786,488.674469 413.263184,491.171051 
	C413.263184,503.152466 413.263184,515.177795 413.263184,527.914307 
	C418.810150,527.637817 424.106323,527.750366 429.282410,527.016296 
	C435.176361,526.180420 439.542419,522.559448 440.843781,516.733887 
	C441.791870,512.489990 441.306427,507.925781 441.205078,502.717529 
z"/>
<path fill="#2AA2EC" opacity="1.000000" stroke="none" 
	d="
M544.371582,519.640259 
	C536.025085,509.961670 539.447754,497.660065 551.497009,494.425964 
	C556.357727,493.121307 561.677002,493.380798 566.796631,493.223450 
	C572.754944,493.040375 578.723206,493.180786 585.015015,493.180786 
	C585.015015,496.178406 585.015015,498.757690 585.015015,501.604553 
	C583.385803,501.819031 581.790649,502.028992 579.787964,502.292633 
	C581.669373,508.493042 582.030579,514.397278 576.982300,519.325806 
	C572.774292,523.433899 567.488770,524.415283 561.935059,525.003601 
	C559.444092,525.267395 557.031860,526.275635 554.583923,526.946045 
	C555.888855,531.426453 559.666382,529.517578 562.460693,529.866394 
	C566.736694,530.400391 571.132080,530.192749 575.339050,531.009521 
	C580.369507,531.986206 584.083801,534.838440 585.092041,540.372314 
	C586.125488,546.044250 584.301208,550.555359 579.795776,553.957764 
	C571.409607,560.290588 552.504761,561.022522 543.516663,555.416870 
	C540.050781,553.255310 537.927612,550.229370 538.035645,545.980286 
	C538.164734,540.901184 541.864441,539.061707 545.924377,537.595886 
	C540.403809,531.225342 540.773804,528.753174 548.226440,522.474243 
	C547.006470,521.591614 545.824646,520.736450 544.371582,519.640259 
M552.965942,507.855896 
	C552.538086,511.348969 553.484436,514.727966 556.999878,515.416260 
	C559.922180,515.988403 563.750427,515.613525 566.120239,514.052917 
	C567.737915,512.987549 568.598267,508.779877 567.846008,506.674194 
	C567.108582,504.610046 564.101379,502.625854 561.735046,502.038788 
	C557.771851,501.055603 554.714417,503.187134 552.965942,507.855896 
M560.499939,540.065918 
	C558.516846,540.023376 556.394958,539.524658 554.591553,540.072937 
	C552.947876,540.572754 550.707886,542.039490 550.465820,543.390930 
	C550.226929,544.724487 552.086121,547.720764 553.158569,547.785889 
	C558.616150,548.117432 564.133362,547.916382 569.587585,547.429138 
	C570.537476,547.344238 572.010071,544.939880 571.912903,543.711853 
	C571.824219,542.590820 570.085266,541.029602 568.805054,540.697449 
	C566.454224,540.087463 563.905945,540.238708 560.499939,540.065918 
z"/>
<path fill="#24A1EE" opacity="1.000000" stroke="none" 
	d="
M196.134171,445.092987 
	C177.098770,461.921906 166.181824,482.599060 163.536819,507.934387 
	C161.466171,507.934387 159.422455,507.934387 157.363998,507.934387 
	C160.755127,460.890015 201.541245,414.434418 261.143707,416.240631 
	C311.416168,417.764069 359.098969,463.525299 356.853821,508.063171 
	C355.111420,508.063171 353.359589,508.063171 351.639923,508.063171 
	C342.410400,429.109802 253.422546,397.031219 196.134171,445.092987 
z"/>
<path fill="#1B275A" opacity="1.000000" stroke="none" 
	d="
M824.968384,518.823120 
	C830.285767,506.605469 835.573669,494.787262 840.615234,482.864899 
	C841.960327,479.683960 843.780273,478.871033 847.221375,478.450378 
	C854.464539,477.564880 857.609436,480.603424 860.198669,487.066223 
	C866.800659,503.544891 874.227234,519.693176 881.318726,535.975891 
	C881.693542,536.836426 882.020813,537.717773 882.621033,539.215454 
	C877.997498,539.215454 873.858032,539.479004 869.789124,539.058838 
	C868.526428,538.928467 866.976746,537.151550 866.374634,535.772156 
	C862.625488,527.182556 862.702393,527.148560 853.360657,527.190002 
	C851.531372,527.198120 849.673889,527.423462 847.877686,527.184753 
	C839.613037,526.086182 832.818665,527.167358 831.241760,537.233215 
	C831.115906,538.037048 829.478394,539.125183 828.492188,539.181335 
	C824.554565,539.405518 820.596680,539.273743 816.049072,539.273743 
	C819.179443,532.125183 822.013000,525.654358 824.968384,518.823120 
M848.102966,497.015381 
	C845.697998,503.140961 843.293091,509.266510 840.734863,515.782471 
	C846.704773,515.782471 852.079895,515.782471 857.902649,515.782471 
	C856.435303,511.943207 855.118469,508.397614 853.725586,504.882202 
	C852.400696,501.538544 850.996216,498.226379 849.467163,494.512787 
	C848.845520,495.532593 848.588501,495.954224 848.102966,497.015381 
z"/>
<path fill="#24A1EE" opacity="1.000000" stroke="none" 
	d="
M304.739349,595.883667 
	C330.936188,579.702881 346.553833,556.839905 350.889282,526.423584 
	C352.843475,526.423584 354.462219,526.423584 356.827362,526.423584 
	C353.400238,556.598694 339.275024,580.370056 314.254425,596.923279 
	C279.474426,619.933228 243.112518,621.192078 206.592056,601.008789 
	C176.072845,584.142212 159.025635,550.906738 158.396667,526.337402 
	C159.986130,526.252258 161.586304,526.166565 163.604202,526.058472 
	C170.016312,562.947266 189.605209,589.615723 224.947922,602.826538 
	C252.185623,613.007690 278.929749,610.118896 304.739349,595.883667 
z"/>
<path fill="#1F2B5B" opacity="1.000000" stroke="none" 
	d="
M202.967285,477.685211 
	C204.008102,473.410858 204.613907,469.398529 206.075089,465.726593 
	C206.925751,463.588867 208.879333,460.863708 210.810562,460.407043 
	C214.277130,459.587311 215.292770,462.940826 216.064758,465.757019 
	C221.423828,485.306885 226.780640,504.857361 232.152893,524.403625 
	C232.485855,525.615112 232.943665,526.792297 233.519989,528.512573 
	C237.458420,522.054810 235.120224,509.918915 248.793518,513.627441 
	C242.611343,522.455078 236.218460,530.734680 226.229019,536.509277 
	C221.293823,519.128418 216.477798,502.167328 211.661789,485.206268 
	C211.250412,485.185669 210.839035,485.165070 210.427643,485.144470 
	C209.322296,489.153320 208.193619,493.155884 207.116867,497.172394 
	C205.352814,503.752747 203.613525,510.339783 201.882004,516.928772 
	C201.082016,519.973022 199.513794,521.881714 196.003494,521.866577 
	C180.034149,521.798096 164.064346,521.836548 147.829468,521.836548 
	C147.829468,518.993591 147.829468,516.278442 147.829468,513.070557 
	C162.833344,513.070557 178.045822,513.070557 193.502258,513.070557 
	C196.700470,501.155182 199.795914,489.622650 202.967285,477.685211 
z"/>
<path fill="#1F2B5B" opacity="1.000000" stroke="none" 
	d="
M311.012573,553.305664 
	C309.717438,558.373230 308.457733,563.026733 307.285278,567.702087 
	C306.552643,570.623718 306.222534,573.891846 302.219452,574.063782 
	C298.081146,574.241577 297.707184,570.891846 296.918671,568.017761 
	C291.514191,548.318115 286.113342,528.617554 280.425293,507.874115 
	C278.980804,512.222107 278.655334,516.286621 276.503845,518.767578 
	C274.545258,521.026062 270.603882,521.565063 267.536530,522.862000 
	C267.014282,522.113342 266.492065,521.364746 265.969849,520.616150 
	C272.478790,513.120117 278.987732,505.624146 285.496704,498.128113 
	C286.047729,498.298676 286.598785,498.469238 287.149841,498.639801 
	C291.849884,515.725769 296.549927,532.811768 301.249969,549.897705 
	C301.725891,549.894348 302.201813,549.890930 302.677734,549.887512 
	C303.965698,545.202820 305.281372,540.525452 306.534607,535.831482 
	C308.078217,530.050049 309.599548,524.262329 311.071991,518.462463 
	C311.872131,515.310669 313.200104,512.891968 316.996643,512.898621 
	C333.635620,512.927795 350.274658,512.911194 367.169403,512.911194 
	C367.169403,515.827759 367.169403,518.585022 367.169403,521.820801 
	C351.482361,521.820801 335.579163,521.820801 319.522552,521.820801 
	C316.638885,532.442749 313.861877,542.671753 311.012573,553.305664 
z"/>
<path fill="#28A8F1" opacity="1.000000" stroke="none" 
	d="
M261.640839,538.831299 
	C268.198547,535.723755 268.277954,535.107666 263.590332,530.023926 
	C262.861420,529.233398 262.657410,527.958862 262.156677,526.781067 
	C265.871002,528.115784 268.974243,530.290405 271.758881,529.939209 
	C274.656006,529.573853 277.245483,526.768860 280.886963,524.445129 
	C279.412628,527.415894 278.210876,529.837463 276.830353,532.619202 
	C279.013153,532.972656 280.931641,533.283264 282.815369,533.588257 
	C282.720337,534.354431 282.753937,534.607483 282.674408,534.650330 
	C275.198517,538.674744 275.096313,538.743530 280.456604,546.551514 
	C283.307251,550.703918 286.968201,554.336182 289.523590,558.642212 
	C291.128906,561.347412 291.362213,564.866821 292.403900,568.737366 
	C283.270050,566.780762 282.051605,575.225708 276.732117,578.049622 
	C276.941925,578.476562 277.151764,578.903503 277.361572,579.330383 
	C283.044769,577.626038 288.727966,575.921692 294.411163,574.217346 
	C294.605408,574.601562 294.799622,574.985779 294.993866,575.369995 
	C294.252960,575.948914 293.597107,576.764404 292.756714,577.066650 
	C288.686584,578.530212 284.436951,579.568237 280.514191,581.339966 
	C278.197723,582.386169 276.523163,584.779236 274.278015,586.080200 
	C272.327515,587.210327 269.731628,588.602600 267.884918,588.116516 
	C266.303314,587.700134 264.333435,584.707275 264.461761,582.998596 
	C264.587189,581.327942 267.203033,578.447815 268.632904,578.502991 
	C276.620178,578.811157 278.337708,571.710571 282.541779,567.297119 
	C276.151093,569.510498 268.039917,566.429810 263.610962,574.295898 
	C262.967743,575.438354 260.893372,576.286377 259.431763,576.366333 
	C253.747269,576.677246 251.888290,578.650452 251.022537,584.434448 
	C250.737152,586.341125 248.909210,588.792358 247.186951,589.469543 
	C245.742386,590.037598 242.156723,588.847473 241.717865,587.638000 
	C239.964737,582.806213 235.770248,582.374084 231.966049,581.069824 
	C229.448730,580.206726 226.954269,579.145508 224.358810,578.687927 
	C222.621597,578.381653 220.538544,578.551514 218.934875,579.251770 
	C214.101822,581.362061 210.835739,579.382141 210.506348,574.069153 
	C210.418137,572.646240 209.774872,570.782349 208.727951,569.978027 
	C204.587585,566.797302 201.651993,561.742371 194.917297,562.609741 
	C191.385025,563.064636 189.541306,558.576355 191.021408,555.199829 
	C192.181961,552.552246 193.089737,549.793884 194.239319,546.740784 
	C195.036911,548.144958 196.012497,549.862488 197.191803,551.938660 
	C198.156204,551.322815 199.280640,550.604736 201.373306,549.268433 
	C198.138382,561.291016 206.914261,564.882751 213.705688,570.516785 
	C215.517349,566.551880 217.169022,563.476196 213.503265,560.181091 
	C212.556717,559.330200 212.404037,557.090332 212.683777,555.642517 
	C212.788269,555.101685 215.200729,554.647827 216.501740,554.772217 
	C219.170166,555.027527 222.289536,553.932007 223.871292,557.877441 
	C224.337753,559.040955 227.736984,559.028687 229.792206,559.555237 
	C230.058121,557.960327 230.306213,556.362122 230.599274,554.772217 
	C230.706604,554.190063 230.920609,553.627502 231.400391,551.969055 
	C233.042221,554.729126 234.184845,556.650024 236.175507,559.996521 
	C238.655914,555.667786 240.228302,552.175232 242.487381,549.205017 
	C244.492889,546.568237 246.916534,543.842407 249.779892,542.369385 
	C253.274750,540.571411 257.421417,540.040466 261.640839,538.831299 
M267.710205,544.229797 
	C267.896271,542.855225 268.082336,541.480591 268.446014,538.793762 
	C262.713745,541.260010 257.905670,542.951111 253.538223,545.421265 
	C252.093292,546.238464 250.649719,549.466492 251.158829,550.897278 
	C252.988800,556.040039 255.653564,560.885803 258.002838,565.843872 
	C258.471832,565.775146 258.940826,565.706421 259.409821,565.637695 
	C260.314911,563.427917 261.220001,561.218201 262.748352,559.067383 
	C263.209961,559.451721 263.671570,559.836060 263.803802,560.876770 
	C261.738647,567.025818 262.355469,568.743774 266.447937,567.850586 
	C271.600983,566.725952 276.714447,565.366211 281.763611,563.838806 
	C285.067505,562.839417 286.276886,560.749390 284.127686,557.432007 
	C281.344116,553.135498 278.801575,548.681824 275.981903,544.410278 
	C275.160370,543.165649 273.746918,542.311768 272.604797,541.278748 
	C271.663971,542.513916 270.723145,543.749084 269.044037,544.978638 
	C268.550629,544.957031 268.057220,544.935425 267.710205,544.229797 
M246.628372,565.994934 
	C249.372925,566.701111 252.117477,567.407288 256.287872,568.480286 
	C254.348953,564.253906 253.268356,561.327087 251.713989,558.678345 
	C250.290375,556.252563 248.355011,554.127014 246.645126,551.869202 
	C244.571533,553.997192 242.492661,556.120117 240.431931,558.260498 
	C240.207840,558.493225 239.889526,558.883301 239.952209,559.104919 
	C240.455765,560.885010 240.662476,562.935608 241.727737,564.307190 
	C242.488724,565.286926 244.435242,565.345947 246.628372,565.994934 
M239.630341,580.994690 
	C240.032120,580.239380 240.939835,579.296387 240.742142,578.763489 
	C240.114304,577.071045 238.724854,575.626038 238.261612,573.914429 
	C237.052887,569.448547 233.145630,567.499084 229.783981,567.864624 
	C226.567719,568.214355 223.665268,571.449707 220.624878,573.416748 
	C220.773041,573.890442 220.921188,574.364136 221.069351,574.837769 
	C226.995300,576.825439 232.921234,578.813049 239.630341,580.994690 
M252.019943,576.368225 
	C253.491074,574.585083 255.759552,572.356018 252.459000,570.799744 
	C248.161057,568.773254 243.446548,567.630249 238.911316,566.107056 
	C238.606842,566.539917 238.302353,566.972839 237.997879,567.405762 
	C239.212997,570.011902 240.324524,572.672668 241.664612,575.212891 
	C244.530060,580.644653 246.974228,581.024780 252.019943,576.368225 
M224.338806,568.071228 
	C225.911469,566.952576 227.484131,565.833862 229.170990,564.633972 
	C226.757431,560.778320 223.456528,559.657532 220.105637,561.442444 
	C216.584259,563.318054 217.331757,566.814880 218.593781,570.595642 
	C220.478287,569.810791 222.084091,569.142029 224.338806,568.071228 
z"/>
<path fill="#1B275A" opacity="1.000000" stroke="none" 
	d="
M719.998718,503.073059 
	C721.470459,504.004089 722.898254,504.767151 724.337341,504.789246 
	C732.142456,504.909302 739.950317,504.846252 748.101196,504.846252 
	C748.101196,508.679138 748.101196,512.260437 748.101196,516.398315 
	C738.950745,516.398315 729.721069,516.398315 720.099976,516.398315 
	C720.099976,524.210571 720.099976,531.487000 720.099976,539.029053 
	C715.271912,539.029053 710.841736,539.029053 706.168518,539.029053 
	C706.168518,518.977478 706.168518,499.034149 706.168518,478.788086 
	C720.937012,478.788086 735.685608,478.788086 750.717041,478.788086 
	C750.717041,482.570221 750.717041,486.163361 750.717041,490.202942 
	C740.602478,490.202942 730.502808,490.202942 719.959961,490.202942 
	C719.959961,494.614777 719.959961,498.588928 719.998718,503.073059 
z"/>
<path fill="#2AA2EC" opacity="1.000000" stroke="none" 
	d="
M529.489868,515.127930 
	C529.492615,518.436218 529.200256,521.309692 529.609680,524.079346 
	C529.855713,525.744019 531.568176,527.159485 531.963379,528.841614 
	C532.682739,531.903015 533.229187,535.093018 533.097778,538.197571 
	C533.068909,538.878906 529.930542,539.830017 528.172974,539.959045 
	C523.479919,540.303406 519.663269,538.680481 517.637024,533.690857 
	C512.351135,539.368896 506.048462,541.549744 498.617065,539.940002 
	C492.121155,538.532959 487.952026,533.878845 487.387939,527.566284 
	C486.871735,521.789856 490.298218,516.321777 496.424988,514.086060 
	C499.494446,512.966003 502.859589,512.485962 506.135468,512.151062 
	C509.243225,511.833313 512.408997,512.082703 515.506592,512.082703 
	C516.054626,506.542389 514.338928,503.733093 509.374695,503.908386 
	C503.712341,504.108276 498.094818,505.576660 492.243408,506.528656 
	C488.413300,496.587067 488.187988,497.315674 498.619476,494.431732 
	C503.017761,493.215820 507.850067,493.044159 512.455872,493.209900 
	C523.176270,493.595642 528.519714,499.031067 529.322266,509.660126 
	C529.447510,511.317963 529.437683,512.985962 529.489868,515.127930 
M500.761169,524.638123 
	C501.571289,529.729065 504.115967,531.322632 509.503784,530.112915 
	C515.079468,528.861084 516.949829,525.491211 515.376038,519.532776 
	C506.451569,518.692688 503.954437,519.435059 500.761169,524.638123 
z"/>
<path fill="#28A2ED" opacity="1.000000" stroke="none" 
	d="
M690.219238,532.180908 
	C680.764343,541.756104 665.550232,543.112427 655.256653,535.531433 
	C646.325317,528.953735 643.452698,515.807800 648.886536,505.365997 
	C653.644836,496.222351 661.651489,492.710693 671.616760,492.979706 
	C681.360596,493.242706 689.226562,496.899048 693.322327,506.177612 
	C697.291870,515.170166 697.085449,523.970215 690.219238,532.180908 
M678.547913,526.080750 
	C679.565552,524.209229 680.983337,522.446228 681.525635,520.445923 
	C683.122498,514.555725 680.624268,507.938782 676.238220,505.528717 
	C672.163940,503.289978 667.057678,503.895813 663.719849,507.013947 
	C659.375732,511.072083 658.702637,520.111206 662.380798,524.996521 
	C665.895508,529.664795 671.886536,530.282715 678.547913,526.080750 
z"/>
<path fill="#24A4F1" opacity="1.000000" stroke="none" 
	d="
M287.655670,472.183594 
	C284.220642,471.700592 283.002258,473.038208 283.881866,476.475098 
	C284.199097,477.714691 283.932770,479.103607 283.932770,480.424408 
	C283.454681,480.505615 282.976593,480.586792 282.498505,480.667999 
	C282.004852,479.065491 281.847046,477.213867 280.905090,475.943878 
	C280.223450,475.024750 277.565704,474.229462 277.387848,474.486267 
	C275.620270,477.038177 273.400665,479.666016 272.828094,482.571777 
	C271.787048,487.855255 269.074677,489.554108 263.862762,490.263794 
	C258.771637,490.956970 253.915268,493.698029 249.144424,495.941223 
	C248.641678,496.177582 248.914352,499.412842 249.704483,500.731018 
	C250.871490,502.677917 252.825638,504.152985 254.094025,506.268311 
	C249.413910,506.583466 247.693420,499.237274 242.719376,501.959351 
	C239.232193,503.867676 236.386307,506.947876 232.407166,509.314148 
	C234.215576,506.200684 236.023972,503.087219 238.384369,499.023376 
	C235.101273,499.023376 232.463730,499.023376 229.320496,499.023376 
	C230.051498,497.836365 230.218338,497.330933 230.383026,497.331635 
	C239.376831,497.369995 240.577774,493.439545 235.394867,486.649811 
	C233.385468,484.017395 232.028519,480.880829 229.975998,478.289429 
	C228.441513,476.351959 226.268219,474.920441 224.379364,473.263641 
	C224.019440,473.567657 223.659515,473.871704 223.299591,474.175720 
	C222.844162,472.601807 222.360931,471.035278 221.938278,469.452606 
	C220.453079,463.890900 220.544571,463.808319 226.510071,463.831818 
	C227.276733,463.834839 228.282578,463.715546 228.773804,463.237701 
	C232.035263,460.065430 235.186691,456.780029 238.373886,453.531403 
	C238.109161,453.151611 237.844437,452.771820 237.579697,452.391998 
	C231.236420,454.505890 224.893127,456.619812 218.808060,458.647644 
	C216.474518,457.454865 214.055710,456.218506 210.663086,454.484375 
	C212.640961,454.173309 214.291183,453.360107 215.135162,453.873169 
	C219.741776,456.673401 223.828506,454.319092 227.877335,452.783325 
	C232.927246,450.867920 238.981827,450.612213 241.755066,444.470062 
	C242.185455,443.516815 245.672134,442.967682 247.016266,443.655884 
	C248.608414,444.471100 250.322021,446.842010 250.300079,448.516632 
	C250.277771,450.220642 248.180801,453.370300 247.040512,453.348633 
	C239.432037,453.204041 236.864868,459.976379 231.421051,463.804626 
	C229.210739,465.981506 229.210739,465.981506 232.728027,468.263397 
	C231.628952,469.914276 229.770172,471.945007 230.197006,472.725159 
	C233.722733,479.169006 237.671951,485.381165 242.213928,492.848938 
	C243.939499,489.558655 244.891113,487.744141 246.183395,485.960022 
	C246.750809,486.014252 246.977554,486.038177 247.166138,486.448792 
	C246.967545,488.735596 246.807114,490.635681 246.654709,492.440735 
	C247.255661,492.686401 247.613602,492.981232 247.833328,492.900360 
	C251.535004,491.538910 255.357117,490.400879 258.850922,488.621216 
	C260.657501,487.700897 263.101349,485.627045 263.105530,484.068604 
	C263.114563,480.721130 261.728760,477.369934 261.246765,474.010468 
	C262.023529,474.003784 262.467438,474.006866 262.987183,474.366028 
	C265.162567,476.663940 265.018433,481.809235 268.931030,480.581940 
	C271.314423,479.834351 273.062836,476.362885 274.605194,473.817291 
	C276.385925,470.878204 275.550323,468.465515 272.032196,467.364075 
	C270.970825,467.031769 269.929352,466.635986 268.910797,465.904541 
	C268.963928,465.052582 268.984985,464.565277 269.369385,464.085663 
	C270.189484,464.244507 270.646271,464.395721 271.263916,464.670929 
	C271.424744,464.794922 271.814545,464.917328 271.814545,464.917328 
	C271.814545,464.917328 272.223083,464.907745 272.611725,464.928894 
	C274.187592,464.950012 275.374817,464.950012 277.381012,464.950012 
	C275.707184,461.726929 274.463623,459.251038 273.147400,456.814362 
	C270.185333,451.330750 267.080505,450.966644 262.585388,455.538422 
	C263.084961,452.106201 263.201599,448.549133 264.261139,445.299469 
	C264.724304,443.878937 267.334747,442.004852 268.583038,442.256531 
	C270.599854,442.663116 272.296875,444.656158 274.143341,446.615814 
	C274.400543,447.510040 274.643402,447.767609 274.886230,448.025177 
	C275.087738,448.066895 275.289276,448.108582 275.930115,448.433533 
	C276.632904,448.888275 276.920349,448.952393 277.231750,448.909180 
	C277.629028,448.962311 278.026276,449.015442 278.689148,449.578247 
	C278.924072,450.587585 278.893402,451.087311 278.510742,451.479187 
	C276.571777,451.060242 274.984802,450.749115 272.115692,450.186646 
	C276.076355,456.128021 276.781158,463.482544 284.006897,463.608612 
	C287.271606,463.665558 290.596100,460.294312 293.893494,458.478394 
	C293.789886,457.958618 293.686279,457.438873 293.582672,456.919098 
	C289.367432,455.339661 285.152191,453.760223 281.132507,451.882385 
	C281.992096,451.342987 282.656128,451.102051 283.320190,450.861084 
	C285.084564,451.298035 286.901947,451.588867 288.601440,452.204834 
	C291.432800,453.231018 293.889496,453.946381 296.957550,452.079926 
	C300.191559,450.112488 304.397003,452.505219 304.078857,456.140503 
	C303.754028,459.852112 305.674713,461.666168 307.982513,463.474854 
	C311.529358,466.254669 313.973999,470.673187 320.009003,469.437775 
	C323.225220,468.779419 324.917603,473.562225 323.310120,477.017029 
	C322.269318,479.253845 321.662811,481.692719 320.694275,484.531952 
	C319.840424,483.386169 318.740051,481.909546 317.511017,480.260345 
	C316.708679,480.682739 315.654968,481.237457 313.299438,482.477539 
	C316.640259,472.320862 309.511322,468.442230 304.229675,463.556030 
	C303.462158,462.845978 302.323853,462.536713 301.357178,462.041962 
	C300.832581,463.132782 300.066986,464.176361 299.841675,465.325806 
	C299.527985,466.926117 299.618744,468.605743 299.510559,470.923462 
	C297.981110,471.373993 296.477509,471.152466 295.122375,470.583740 
	C295.883698,467.978516 296.715363,465.742584 296.947723,463.446045 
	C297.002289,462.906616 294.612488,461.358856 294.063629,461.645721 
	C291.013580,463.239838 288.184357,465.256439 284.809235,467.431580 
	C286.829895,469.167908 287.911713,470.097534 288.834778,471.285156 
	C288.335907,471.756622 287.995789,471.970123 287.655670,472.183594 
z"/>
<path fill="#28A2ED" opacity="1.000000" stroke="none" 
	d="
M606.465332,531.831360 
	C606.466614,534.441284 606.466614,536.575745 606.466614,539.053955 
	C601.816650,539.053955 597.595886,539.053955 593.134888,539.053955 
	C593.134888,524.119385 593.134888,509.372894 593.134888,494.313629 
	C597.060974,494.313629 600.808167,494.313629 604.708191,494.313629 
	C605.156128,496.107697 605.593323,497.858734 606.179321,500.205688 
	C610.806458,494.903107 616.407837,492.637085 623.089966,493.064484 
	C631.109558,493.577454 637.155579,498.197052 637.664734,506.127289 
	C638.364258,517.022400 637.839844,527.996094 637.839844,539.182495 
	C633.516235,539.182495 629.420044,539.182495 624.594055,539.182495 
	C624.594055,530.980286 624.684265,523.028687 624.567993,515.080139 
	C624.458252,507.579071 622.507751,504.963715 617.298828,504.788239 
	C611.217529,504.583313 606.794067,508.756775 606.508423,515.382263 
	C606.279297,520.697510 606.463379,526.030640 606.465332,531.831360 
z"/>
<path fill="#9BE31E" opacity="1.000000" stroke="none" 
	d="
M183.995148,532.018555 
	C189.848709,534.750793 195.561996,537.851440 201.583008,540.143799 
	C217.437439,546.180176 230.426910,543.072632 241.665894,530.295471 
	C247.032349,524.194580 251.418625,517.242737 256.514160,510.889069 
	C261.600616,504.546722 266.409210,497.789429 272.414062,492.414398 
	C286.244751,480.034332 305.571930,479.389404 320.808441,490.025391 
	C324.535278,492.626953 327.982452,495.629120 330.904388,499.261414 
	C326.318817,497.069275 321.872711,494.497467 317.122772,492.752716 
	C299.483429,486.273285 286.267578,489.451538 274.136780,503.757568 
	C267.160492,511.984802 261.424591,521.253174 254.649765,529.665894 
	C250.716629,534.549927 246.203171,539.135681 241.295242,543.029236 
	C231.927124,550.461243 221.108887,552.069580 209.677185,548.742615 
	C199.546844,545.794312 191.119537,539.974548 183.874695,532.268494 
	C184.027954,531.966431 183.995148,532.018555 183.995148,532.018555 
z"/>
<path fill="#24A1EE" opacity="1.000000" stroke="none" 
	d="
M467.475739,539.393677 
	C466.656311,538.681152 465.959320,538.023865 465.956390,537.363525 
	C465.893677,523.252197 465.908813,509.140503 465.908813,494.650696 
	C470.354919,494.650696 474.553314,494.650696 479.057526,494.650696 
	C479.057526,509.407135 479.057526,523.991211 479.057526,539.447510 
	C475.395172,539.447510 471.658295,539.447510 467.475739,539.393677 
z"/>
<path fill="#F7FBFC" opacity="1.000000" stroke="none" 
	d="
M260.913940,474.020264 
	C261.728760,477.369934 263.114563,480.721130 263.105530,484.068604 
	C263.101349,485.627045 260.657501,487.700897 258.850922,488.621216 
	C255.357117,490.400879 251.535004,491.538910 247.833328,492.900360 
	C247.613602,492.981232 247.255661,492.686401 246.654709,492.440735 
	C246.807114,490.635681 246.967545,488.735596 247.489777,486.315399 
	C250.316971,480.653137 252.394730,475.408051 253.278809,469.846100 
	C252.630081,469.643829 251.981354,469.441528 251.332626,469.239227 
	C249.502670,474.802704 247.672699,480.366180 245.842743,485.929657 
	C244.891113,487.744141 243.939499,489.558655 242.213928,492.848938 
	C237.671951,485.381165 233.722733,479.169006 230.197006,472.725159 
	C229.770172,471.945007 231.628952,469.914276 233.090240,468.276947 
	C234.879318,467.755219 236.006561,467.419678 237.483490,467.096649 
	C238.064941,467.082916 238.296722,467.056671 238.528503,467.030396 
	C238.528503,467.030396 238.499863,467.036194 238.856201,467.000122 
	C240.129471,466.641235 241.046417,466.318451 242.373383,465.791504 
	C242.690842,465.046112 242.598282,464.504883 242.505737,463.963684 
	C242.728424,463.920135 242.952942,463.906219 243.151718,464.279297 
	C243.288803,464.833130 243.453476,465.029602 243.764160,465.436310 
	C244.364075,465.470215 244.817978,465.293915 245.591766,465.101868 
	C247.087021,464.610382 248.262421,464.134705 249.459412,463.630310 
	C249.481003,463.601562 249.545288,463.633728 249.837524,463.800690 
	C250.854309,464.989502 251.578857,466.011353 252.190903,467.295532 
	C252.243301,467.837158 252.408218,468.116394 252.963547,468.606415 
	C254.720856,467.504181 255.995773,465.668854 258.037781,468.341736 
	C259.019043,470.463440 259.966492,472.241852 260.913940,474.020264 
z"/>
<path fill="#F7FBFC" opacity="1.000000" stroke="none" 
	d="
M268.878754,466.269257 
	C269.929352,466.635986 270.970825,467.031769 272.032196,467.364075 
	C275.550323,468.465515 276.385925,470.878204 274.605194,473.817291 
	C273.062836,476.362885 271.314423,479.834351 268.931030,480.581940 
	C265.018433,481.809235 265.162567,476.663940 263.003235,474.022522 
	C261.942078,471.451599 260.940704,469.580292 259.867065,467.377594 
	C260.749756,466.134033 261.646820,465.148102 262.680939,464.336823 
	C263.321411,463.834351 264.170105,463.597260 264.998169,463.052765 
	C264.596436,462.700317 264.121918,462.536133 263.353333,462.250854 
	C262.539642,460.076385 262.019958,458.023010 261.500305,455.969666 
	C261.855316,455.828186 262.210327,455.686707 262.575378,455.541809 
	C267.080505,450.966644 270.185333,451.330750 273.147400,456.814362 
	C274.463623,459.251038 275.707184,461.726929 277.381012,464.950012 
	C275.374817,464.950012 274.187592,464.950012 272.455444,464.783508 
	C271.655518,464.430084 271.386353,464.406708 271.103058,464.546936 
	C270.646271,464.395721 270.189484,464.244507 269.211487,463.984711 
	C268.690247,463.876099 268.317352,463.913940 268.142365,463.735962 
	C267.581268,463.616852 267.195190,463.675690 266.775421,463.729065 
	C266.741760,463.723633 266.673553,463.724091 266.277344,463.785950 
	C266.217987,464.421143 266.554901,464.994476 267.110046,465.721375 
	C267.845154,466.006348 268.361938,466.137787 268.878754,466.269257 
z"/>
<path fill="#24A4F1" opacity="1.000000" stroke="none" 
	d="
M297.147278,507.812500 
	C300.219452,507.659241 303.861816,510.338684 305.355713,506.542236 
	C306.727448,503.056091 306.730072,499.031158 307.369659,495.032349 
	C307.987244,495.592896 309.444183,496.915253 311.061157,498.382843 
	C311.741241,497.651917 312.574066,496.756866 313.897339,495.334717 
	C314.892151,499.166931 316.454559,502.497437 316.279938,505.734253 
	C316.201691,507.185059 312.579529,509.622955 310.680664,509.518585 
	C307.897400,509.365601 305.667572,508.525848 303.893372,511.545959 
	C302.087463,514.620117 302.523315,517.146973 304.830902,519.670593 
	C305.208557,520.083679 305.013062,521.020935 305.210449,522.996826 
	C301.315765,518.540710 295.180206,517.723267 295.429504,511.352722 
	C295.475891,510.166779 296.312073,509.011719 297.147278,507.812500 
z"/>
<path fill="#24A4F1" opacity="1.000000" stroke="none" 
	d="
M217.435211,522.723267 
	C218.991852,527.996216 220.709213,532.890137 219.249390,538.286682 
	C216.589417,535.424805 219.441406,528.141907 212.084564,529.770386 
	C208.610092,530.539490 205.183289,531.898743 205.827209,537.500671 
	C201.858932,535.894226 198.630219,534.587158 195.198181,533.197815 
	C196.074631,530.509460 196.755814,528.420044 197.517532,526.083557 
	C201.883759,527.755615 205.976944,531.089233 211.040680,527.353516 
	C214.414581,524.864441 215.109467,523.048767 212.558823,519.688416 
	C210.722214,517.268799 208.991348,514.768982 207.213318,512.304993 
	C207.800323,511.885712 208.387344,511.466461 208.974350,511.047180 
	C211.743332,514.823120 214.512314,518.599060 217.435211,522.723267 
z"/>
<path fill="#28A8F1" opacity="1.000000" stroke="none" 
	d="
M476.033752,488.401917 
	C474.365631,488.664581 473.028168,488.996796 471.752838,488.836090 
	C467.981232,488.360748 465.067688,486.562164 464.616577,482.491516 
	C464.213959,478.858032 465.728363,475.967499 469.352814,474.720947 
	C473.090912,473.435303 476.805023,473.756958 479.061005,477.289642 
	C481.159424,480.575714 481.286774,484.188934 478.041077,487.166321 
	C477.563416,487.604492 476.945740,487.890015 476.033752,488.401917 
z"/>
<path fill="#24A4F1" opacity="1.000000" stroke="none" 
	d="
M322.042175,552.662109 
	C319.255463,554.397522 316.859344,556.234314 313.921204,558.486633 
	C318.502930,547.950745 322.825562,537.846497 322.325562,526.400146 
	C322.958069,526.477722 323.590607,526.555298 324.223114,526.632874 
	C324.223114,530.401489 324.013916,534.187012 324.315247,537.931458 
	C324.456543,539.686768 325.622986,541.348206 326.251495,543.078796 
	C326.987305,545.104980 328.722015,547.669861 328.059082,549.072937 
	C327.241638,550.802979 324.399780,551.576538 322.042175,552.662109 
z"/>
<path fill="#24A1EE" opacity="1.000000" stroke="none" 
	d="
M197.736908,479.420227 
	C196.961945,481.882141 196.447845,484.069092 195.665192,486.155304 
	C195.018631,487.878754 193.945526,489.439789 193.264969,491.153625 
	C192.699768,492.576935 192.248550,494.096222 192.067673,495.611298 
	C191.652512,499.088837 191.433136,502.589752 191.134277,506.081177 
	C190.616638,506.063080 190.099014,506.045013 189.581375,506.026917 
	C189.581375,503.096405 189.968018,500.098175 189.469772,497.254974 
	C188.996536,494.554504 187.996628,491.757874 186.513107,489.466614 
	C184.225433,485.933533 185.330185,481.922150 189.323502,480.745209 
	C192.377487,479.845154 195.367279,478.727325 198.338272,477.722382 
	C198.341919,477.711395 198.111755,478.406525 197.736908,479.420227 
z"/>
<path fill="#1F2B5B" opacity="1.000000" stroke="none" 
	d="
M134.082016,523.240417 
	C130.010788,519.264038 129.557800,515.583130 132.686996,512.791626 
	C135.628204,510.167847 139.199081,509.982147 141.444016,513.089844 
	C142.803223,514.971313 143.239227,518.526123 142.438004,520.728027 
	C141.211166,524.099670 137.838150,524.680176 134.082016,523.240417 
z"/>
<path fill="#1B275A" opacity="1.000000" stroke="none" 
	d="
M377.223999,523.897949 
	C371.323181,521.389526 369.542419,516.487732 373.415283,513.311951 
	C375.101135,511.929504 378.718658,511.076141 380.384094,511.974609 
	C382.306915,513.012024 384.019165,516.225220 384.070709,518.532715 
	C384.150665,522.114746 381.162598,523.766541 377.223999,523.897949 
z"/>
<path fill="#24A4F1" opacity="1.000000" stroke="none" 
	d="
M261.485138,455.534485 
	C262.019958,458.023010 262.539642,460.076385 263.623047,462.541351 
	C264.433014,463.049011 264.679199,463.145050 264.925354,463.241028 
	C264.170105,463.597260 263.321411,463.834351 262.680939,464.336823 
	C261.646820,465.148102 260.749756,466.134033 259.383118,467.455688 
	C258.648987,467.909607 258.326477,467.954041 258.003998,467.998474 
	C255.995773,465.668854 254.720856,467.504181 253.077637,468.366882 
	C252.635361,467.622101 252.469391,467.327667 252.303421,467.033203 
	C251.578857,466.011353 250.854309,464.989502 249.985046,463.285217 
	C249.851166,462.248077 249.862015,461.893433 249.872864,461.538757 
	C251.350159,457.651733 253.338776,454.529877 258.909424,455.899841 
	C259.697540,455.788666 259.845032,455.620880 259.937744,455.404968 
	C260.448486,455.303070 260.959229,455.201172 261.485138,455.534485 
z"/>
<path fill="#34AAEF" opacity="1.000000" stroke="none" 
	d="
M294.973907,470.930939 
	C296.477509,471.152466 297.981110,471.373993 299.721588,471.334534 
	C300.918945,472.739746 301.879395,474.405914 302.839844,476.072083 
	C301.355377,476.670441 299.916229,477.532684 298.374481,477.797455 
	C296.618744,478.098938 294.771484,477.867218 294.074585,477.867218 
	C291.606171,475.748657 289.860535,474.250427 287.885284,472.467926 
	C287.995789,471.970123 288.335907,471.756622 289.173492,471.373657 
	C291.438599,471.113098 293.206268,471.022034 294.973907,470.930939 
z"/>
<path fill="#34AAEF" opacity="1.000000" stroke="none" 
	d="
M237.133820,467.084106 
	C236.006561,467.419678 234.879318,467.755219 233.389862,468.077209 
	C229.210739,465.981506 229.210739,465.981506 231.114563,463.976044 
	C231.150925,466.164581 231.150925,466.164581 235.689621,465.428467 
	C236.427322,466.195251 236.780563,466.639709 237.133820,467.084106 
z"/>
<path fill="#34AAEF" opacity="1.000000" stroke="none" 
	d="
M278.862701,451.587036 
	C278.893402,451.087311 278.924072,450.587585 278.960144,449.712524 
	C280.244995,449.698517 281.524475,450.059906 283.062073,450.641174 
	C282.656128,451.102051 281.992096,451.342987 280.857147,451.875549 
	C279.878387,451.973785 279.370544,451.780396 278.862701,451.587036 
z"/>
<path fill="#24A4F1" opacity="1.000000" stroke="none" 
	d="
M249.437820,463.659027 
	C248.262421,464.134705 247.087021,464.610382 245.175034,465.085297 
	C244.164993,465.131714 243.891556,465.178894 243.618134,465.226105 
	C243.453476,465.029602 243.288803,464.833130 243.318848,464.304962 
	C245.089600,463.285858 246.665665,462.598419 248.703979,462.346924 
	C249.256775,463.074951 249.347305,463.367004 249.437820,463.659027 
z"/>
<path fill="#24A4F1" opacity="1.000000" stroke="none" 
	d="
M237.483490,467.096680 
	C236.780563,466.639709 236.427322,466.195251 236.045044,465.455383 
	C237.008118,465.504364 238.000244,465.848816 238.760437,466.611816 
	C238.296722,467.056671 238.064941,467.082916 237.483490,467.096680 
z"/>
<path fill="#24A4F1" opacity="1.000000" stroke="none" 
	d="
M242.141510,463.859314 
	C242.598282,464.504883 242.690842,465.046112 241.820221,465.765808 
	C240.104111,465.990936 239.351166,466.037567 238.598221,466.084229 
	C238.884323,465.505768 239.170441,464.927277 240.100433,464.192017 
	C240.744293,464.035217 241.052353,463.975464 241.052353,463.975464 
	C241.294022,463.901917 241.535675,463.828400 242.141510,463.859314 
z"/>
<path fill="#34AAEF" opacity="1.000000" stroke="none" 
	d="
M238.481842,466.213135 
	C239.351166,466.037567 240.104111,465.990936 241.410217,465.969971 
	C241.046417,466.318451 240.129471,466.641235 238.841599,466.999817 
	C238.279373,466.826538 238.244293,466.595367 238.481842,466.213135 
z"/>
<path fill="#9BE31E" opacity="1.000000" stroke="none" 
	d="
M184.044327,531.940308 
	C183.668274,531.914978 183.275833,531.915771 182.883423,531.916565 
	C182.892838,531.706238 182.902267,531.495911 182.911682,531.285583 
	C183.185410,531.380554 183.459137,531.475586 183.864014,531.794556 
	C183.995148,532.018555 184.027954,531.966431 184.044327,531.940308 
z"/>
<path fill="#34AAEF" opacity="1.000000" stroke="none" 
	d="
M259.776489,455.463806 
	C259.845032,455.620880 259.697540,455.788666 259.338470,455.974304 
	C259.256744,455.809479 259.401306,455.636932 259.776489,455.463806 
z"/>
<path fill="#34AAEF" opacity="1.000000" stroke="none" 
	d="
M249.459412,463.630310 
	C249.347305,463.367004 249.256775,463.074951 249.085602,462.331238 
	C249.004974,461.879608 249.405365,461.622925 249.639114,461.580841 
	C249.862015,461.893433 249.851166,462.248077 249.692810,463.118225 
	C249.545288,463.633728 249.481003,463.601562 249.459412,463.630310 
z"/>
<path fill="#34AAEF" opacity="1.000000" stroke="none" 
	d="
M240.976898,463.892578 
	C241.052353,463.975464 240.744293,464.035217 240.589859,464.043213 
	C240.486557,463.799927 240.641891,463.719421 240.976898,463.892578 
z"/>
<path fill="#34AAEF" opacity="1.000000" stroke="none" 
	d="
M277.084595,448.727844 
	C276.920349,448.952393 276.632904,448.888275 276.213196,448.556671 
	C276.379974,448.272705 276.673492,448.322693 277.084595,448.727844 
z"/>
<path fill="#34AAEF" opacity="1.000000" stroke="none" 
	d="
M274.787079,447.787048 
	C274.643402,447.767609 274.400543,447.510040 274.127441,446.979675 
	C274.294098,446.987579 274.490997,447.268250 274.787079,447.787048 
z"/>
<path fill="#F7FBFC" opacity="1.000000" stroke="none" 
	d="
M796.203369,495.219727 
	C798.766296,504.981873 795.219543,509.689636 785.617126,509.813965 
	C781.990906,509.860901 778.363586,509.821533 774.083191,509.821533 
	C774.083191,506.246918 774.083252,503.142334 774.083252,500.037720 
	C774.083252,497.049561 774.083191,494.061432 774.083191,490.316101 
	C781.730408,491.378204 789.886108,487.339630 796.203369,495.219727 
z"/>
<path fill="#F7FBFC" opacity="1.000000" stroke="none" 
	d="
M441.332550,503.110962 
	C441.306427,507.925781 441.791870,512.489990 440.843781,516.733887 
	C439.542419,522.559448 435.176361,526.180420 429.282410,527.016296 
	C424.106323,527.750366 418.810150,527.637817 413.263184,527.914307 
	C413.263184,515.177795 413.263184,503.152466 413.263184,491.171051 
	C429.417786,488.674469 437.115570,491.900330 441.332550,503.110962 
z"/>
<path fill="#F7FBFC" opacity="1.000000" stroke="none" 
	d="
M553.040100,507.461304 
	C554.714417,503.187134 557.771851,501.055603 561.735046,502.038788 
	C564.101379,502.625854 567.108582,504.610046 567.846008,506.674194 
	C568.598267,508.779877 567.737915,512.987549 566.120239,514.052917 
	C563.750427,515.613525 559.922180,515.988403 556.999878,515.416260 
	C553.484436,514.727966 552.538086,511.348969 553.040100,507.461304 
z"/>
<path fill="#F7FBFC" opacity="1.000000" stroke="none" 
	d="
M560.969971,540.069275 
	C563.905945,540.238708 566.454224,540.087463 568.805054,540.697449 
	C570.085266,541.029602 571.824219,542.590820 571.912903,543.711853 
	C572.010071,544.939880 570.537476,547.344238 569.587585,547.429138 
	C564.133362,547.916382 558.616150,548.117432 553.158569,547.785889 
	C552.086121,547.720764 550.226929,544.724487 550.465820,543.390930 
	C550.707886,542.039490 552.947876,540.572754 554.591553,540.072937 
	C556.394958,539.524658 558.516846,540.023376 560.969971,540.069275 
z"/>
<path fill="#F7FBFC" opacity="1.000000" stroke="none" 
	d="
M848.217224,496.695618 
	C848.588501,495.954224 848.845520,495.532593 849.467163,494.512787 
	C850.996216,498.226379 852.400696,501.538544 853.725586,504.882202 
	C855.118469,508.397614 856.435303,511.943207 857.902649,515.782471 
	C852.079895,515.782471 846.704773,515.782471 840.734863,515.782471 
	C843.293091,509.266510 845.697998,503.140961 848.217224,496.695618 
z"/>
<path fill="#F7FBFC" opacity="1.000000" stroke="none" 
	d="
M269.782318,544.984253 
	C270.723145,543.749084 271.663971,542.513916 272.604797,541.278748 
	C273.746918,542.311768 275.160370,543.165649 275.981903,544.410278 
	C278.801575,548.681824 281.344116,553.135498 284.127686,557.432007 
	C286.276886,560.749390 285.067505,562.839417 281.763611,563.838806 
	C276.714447,565.366211 271.600983,566.725952 266.447937,567.850586 
	C262.355469,568.743774 261.738647,567.025818 264.151917,560.238281 
	C266.260803,554.727905 268.021545,549.856079 269.782318,544.984253 
z"/>
<path fill="#F7FBFC" opacity="1.000000" stroke="none" 
	d="
M262.125092,559.008423 
	C261.220001,561.218201 260.314911,563.427917 259.409821,565.637695 
	C258.940826,565.706421 258.471832,565.775146 258.002838,565.843872 
	C255.653564,560.885803 252.988800,556.040039 251.158829,550.897278 
	C250.649719,549.466492 252.093292,546.238464 253.538223,545.421265 
	C257.905670,542.951111 262.713745,541.260010 268.446014,538.793762 
	C268.082336,541.480591 267.896271,542.855225 267.433716,544.839478 
	C265.479858,549.968872 263.802490,554.488647 262.125092,559.008423 
z"/>
<path fill="#F7FBFC" opacity="1.000000" stroke="none" 
	d="
M246.240570,565.905396 
	C244.435242,565.345947 242.488724,565.286926 241.727737,564.307190 
	C240.662476,562.935608 240.455765,560.885010 239.952209,559.104919 
	C239.889526,558.883301 240.207840,558.493225 240.431931,558.260498 
	C242.492661,556.120117 244.571533,553.997192 246.645142,551.869202 
	C248.355011,554.127014 250.290375,556.252563 251.713989,558.678345 
	C253.268356,561.327087 254.348953,564.253906 256.287872,568.480286 
	C252.117477,567.407288 249.372925,566.701111 246.240570,565.905396 
z"/>
<path fill="#F7FBFC" opacity="1.000000" stroke="none" 
	d="
M239.238770,580.897705 
	C232.921234,578.813049 226.995300,576.825439 221.069351,574.837769 
	C220.921188,574.364136 220.773041,573.890442 220.624878,573.416748 
	C223.665268,571.449707 226.567719,568.214355 229.783981,567.864624 
	C233.145630,567.499084 237.052887,569.448547 238.261612,573.914429 
	C238.724854,575.626038 240.114304,577.071045 240.742142,578.763489 
	C240.939835,579.296387 240.032120,580.239380 239.238770,580.897705 
z"/>
<path fill="#F7FBFC" opacity="1.000000" stroke="none" 
	d="
M251.773254,576.633057 
	C246.974228,581.024780 244.530060,580.644653 241.664612,575.212891 
	C240.324524,572.672668 239.212997,570.011902 237.997879,567.405762 
	C238.302353,566.972839 238.606842,566.539917 238.911316,566.107056 
	C243.446548,567.630249 248.161057,568.773254 252.459000,570.799744 
	C255.759552,572.356018 253.491074,574.585083 251.773254,576.633057 
z"/>
<path fill="#F7FBFC" opacity="1.000000" stroke="none" 
	d="
M224.014343,568.272217 
	C222.084091,569.142029 220.478287,569.810791 218.593781,570.595642 
	C217.331757,566.814880 216.584259,563.318054 220.105637,561.442444 
	C223.456528,559.657532 226.757431,560.778320 229.170990,564.633972 
	C227.484131,565.833862 225.911469,566.952576 224.014343,568.272217 
z"/>
<path fill="#34AAEF" opacity="1.000000" stroke="none" 
	d="
M262.436707,559.037903 
	C263.802490,554.488647 265.479858,549.968872 267.360535,545.181458 
	C268.057220,544.935425 268.550629,544.957031 269.413177,544.981445 
	C268.021545,549.856079 266.260803,554.727905 264.316620,559.910034 
	C263.671570,559.836060 263.209961,559.451721 262.436707,559.037903 
z"/>
<path fill="#F7FBFC" opacity="1.000000" stroke="none" 
	d="
M500.824036,524.239136 
	C503.954437,519.435059 506.451569,518.692688 515.376038,519.532776 
	C516.949829,525.491211 515.079468,528.861084 509.503784,530.112915 
	C504.115967,531.322632 501.571289,529.729065 500.824036,524.239136 
z"/>
<path fill="#F7FBFC" opacity="1.000000" stroke="none" 
	d="
M678.264282,526.343140 
	C671.886536,530.282715 665.895508,529.664795 662.380798,524.996521 
	C658.702637,520.111206 659.375732,511.072083 663.719849,507.013947 
	C667.057678,503.895813 672.163940,503.289978 676.238220,505.528717 
	C680.624268,507.938782 683.122498,514.555725 681.525635,520.445923 
	C680.983337,522.446228 679.565552,524.209229 678.264282,526.343140 
z"/>
<path fill="#F7FBFC" opacity="1.000000" stroke="none" 
	d="
M278.510742,451.479218 
	C279.370544,451.780396 279.878387,451.973785 280.661621,452.173950 
	C285.152191,453.760223 289.367432,455.339661 293.582672,456.919098 
	C293.686279,457.438873 293.789886,457.958618 293.893494,458.478394 
	C290.596100,460.294312 287.271606,463.665558 284.006897,463.608612 
	C276.781158,463.482544 276.076355,456.128021 272.115692,450.186646 
	C274.984802,450.749115 276.571777,451.060242 278.510742,451.479218 
z"/>
<path fill="#F7FBFC" opacity="1.000000" stroke="none" 
	d="
M295.122375,470.583740 
	C293.206268,471.022034 291.438599,471.113098 289.332245,471.115662 
	C287.911713,470.097534 286.829895,469.167908 284.809235,467.431580 
	C288.184357,465.256439 291.013580,463.239838 294.063629,461.645721 
	C294.612488,461.358856 297.002289,462.906616 296.947723,463.446045 
	C296.715363,465.742584 295.883698,467.978516 295.122375,470.583740 
z"/>
<path fill="#34AAEF" opacity="1.000000" stroke="none" 
	d="
M246.183411,485.960022 
	C247.672699,480.366180 249.502670,474.802704 251.332626,469.239227 
	C251.981354,469.441528 252.630081,469.643829 253.278809,469.846100 
	C252.394730,475.408051 250.316971,480.653137 247.527924,485.928680 
	C246.977554,486.038177 246.750809,486.014252 246.183411,485.960022 
z"/>
<path fill="#34AAEF" opacity="1.000000" stroke="none" 
	d="
M258.037781,468.341736 
	C258.326477,467.954041 258.648987,467.909607 259.455414,467.787109 
	C260.940704,469.580292 261.942078,471.451599 262.927368,473.666412 
	C262.467438,474.006866 262.023529,474.003784 261.246765,474.010468 
	C259.966492,472.241852 259.019043,470.463440 258.037781,468.341736 
z"/>
<path fill="#34AAEF" opacity="1.000000" stroke="none" 
	d="
M268.317352,463.913940 
	C268.317352,463.913940 268.690247,463.876099 268.848145,463.977051 
	C268.984985,464.565277 268.963928,465.052582 268.910797,465.904541 
	C268.361938,466.137787 267.845154,466.006348 267.096344,465.255066 
	C266.800751,464.331512 266.737152,464.027802 266.673553,463.724091 
	C266.673553,463.724091 266.741760,463.723633 267.149780,463.800232 
	C267.811005,463.889191 268.064178,463.901550 268.317352,463.913940 
z"/>
<path fill="#34AAEF" opacity="1.000000" stroke="none" 
	d="
M271.263916,464.670929 
	C271.386353,464.406708 271.655518,464.430084 272.066833,464.762390 
	C272.223083,464.907745 271.814545,464.917328 271.814545,464.917328 
	C271.814545,464.917328 271.424744,464.794922 271.263916,464.670929 
z"/>
<path fill="#34AAEF" opacity="1.000000" stroke="none" 
	d="
M243.764160,465.436310 
	C243.891556,465.178894 244.164993,465.131714 244.855164,465.101074 
	C244.817978,465.293915 244.364075,465.470215 243.764160,465.436310 
z"/>
<path fill="#34AAEF" opacity="1.000000" stroke="none" 
	d="
M252.190903,467.295532 
	C252.469391,467.327667 252.635361,467.622101 252.687225,468.156128 
	C252.408218,468.116394 252.243301,467.837158 252.190903,467.295532 
z"/>
<path fill="#24A4F1" opacity="1.000000" stroke="none" 
	d="
M266.277344,463.785950 
	C266.737152,464.027802 266.800751,464.331512 266.878052,465.101532 
	C266.554901,464.994476 266.217987,464.421143 266.277344,463.785950 
z"/>
<path fill="#34AAEF" opacity="1.000000" stroke="none" 
	d="
M263.917084,462.662476 
	C264.121918,462.536133 264.596436,462.700317 264.998169,463.052795 
	C264.679199,463.145050 264.433014,463.049011 263.917084,462.662476 
z"/>
<path fill="#24A4F1" opacity="1.000000" stroke="none" 
	d="
M268.142365,463.735962 
	C268.064178,463.901550 267.811005,463.889191 267.183472,463.805664 
	C267.195190,463.675690 267.581268,463.616852 268.142365,463.735962 
z"/>
</svg>