<svg version="1.1" id="Layer_1" xmlns="http://www.w3.org/2000/svg" xmlns:xlink="http://www.w3.org/1999/xlink" x="0px" y="0px"
	 width="100%" viewBox="0 0 1024 1024" enable-background="new 0 0 1024 1024" xml:space="preserve">
<path fill="#FEFFFF" opacity="1.000000" stroke="none" 
	d="
M493.000000,1025.000000 
	C328.666656,1025.000000 164.833328,1025.000000 1.000000,1025.000000 
	C1.000000,683.666687 1.000000,342.333344 1.000000,1.000000 
	C342.333344,1.000000 683.666687,1.000000 1025.000000,1.000000 
	C1025.000000,342.333344 1025.000000,683.666687 1025.000000,1025.000000 
	C847.833313,1025.000000 670.666687,1025.000000 493.000000,1025.000000 
M519.203247,303.122314 
	C530.613892,304.392914 542.259033,304.613617 553.397888,307.101257 
	C637.557495,325.896515 692.195374,376.835510 716.941345,459.420258 
	C720.445129,471.113403 721.796204,483.451599 724.178833,495.671967 
	C728.269897,495.671967 732.660889,495.671967 737.068726,495.671967 
	C729.608521,380.862488 626.069763,278.043335 492.229858,290.159271 
	C365.367310,301.643585 292.931824,408.044861 288.999481,495.512207 
	C293.394806,495.512207 297.784790,495.512207 302.290741,495.512207 
	C302.506409,494.020599 302.703400,492.884979 302.831146,491.741669 
	C308.051727,445.023865 326.377869,404.137482 358.628632,369.984863 
	C401.839386,324.225952 455.520142,302.656982 519.203247,303.122314 
M634.164551,684.707336 
	C587.787598,716.389954 536.696228,727.997437 481.221222,720.146790 
	C397.398773,708.284485 327.661713,644.938843 307.857513,562.907227 
	C305.804138,554.401855 304.177216,545.793518 302.400604,537.458984 
	C297.761536,537.458984 293.509064,537.458984 289.230499,537.458984 
	C300.251068,644.634766 393.315369,739.660645 518.938782,736.467163 
	C645.871399,733.240417 728.092957,632.419006 736.522217,537.002563 
	C734.371582,537.002563 732.244873,537.002563 730.118164,537.002563 
	C727.820923,537.002563 725.523621,537.002563 722.971619,537.002563 
	C719.073120,566.837708 709.611938,594.349609 694.446960,619.896362 
	C679.158203,645.651733 659.147949,666.992920 634.164551,684.707336 
M385.842255,445.099274 
	C380.765747,464.052094 375.598572,482.981506 370.691772,501.978180 
	C369.747711,505.633148 368.332092,506.970062 364.353424,506.943146 
	C333.205048,506.732483 302.054779,506.795654 270.905121,506.774597 
	C268.975952,506.773315 267.046753,506.774445 265.978333,506.774445 
	C265.978333,513.630066 265.978333,519.889465 265.978333,526.386719 
	C265.818481,526.346924 266.275787,526.560730 266.732910,526.560303 
	C302.712921,526.529053 338.693146,526.536133 374.672760,526.389648 
	C382.277893,526.358643 385.592896,523.709045 387.608551,516.407288 
	C391.856689,501.018280 395.879089,485.567078 400.062073,470.159851 
	C402.826172,459.978729 405.708435,449.829712 408.537781,439.666321 
	C408.992676,439.655518 409.447571,439.644745 409.902435,439.633942 
	C420.734894,479.063782 431.567383,518.493591 442.541443,558.438904 
	C465.872040,546.987488 479.138092,526.533813 494.721283,506.481171 
	C490.154633,506.481171 486.862640,506.506775 483.571167,506.476410 
	C473.805664,506.386261 470.850647,508.537537 468.079224,517.789307 
	C467.124969,520.974976 466.190613,524.167297 465.182892,527.336182 
	C463.673706,532.081909 462.107758,536.809570 460.565979,541.544861 
	C458.618347,538.717041 457.763947,536.071472 457.021362,533.394836 
	C444.528229,488.362274 432.050659,443.325378 419.565063,398.290741 
	C417.642853,391.357513 414.389099,388.237885 409.020691,388.136719 
	C403.422546,388.031219 400.294464,391.043091 398.287506,398.515869 
	C394.189178,413.775360 390.102722,429.038055 385.842255,445.099274 
M589.907104,586.815369 
	C594.269958,602.872559 598.609680,618.936096 603.005432,634.984314 
	C605.176147,642.909546 612.511841,646.453369 618.588318,641.977600 
	C621.112793,640.118225 623.047180,636.596191 623.901001,633.462708 
	C633.173706,599.430969 642.222046,565.337646 651.191711,531.224426 
	C652.138977,527.622070 653.551697,526.271118 657.544739,526.301819 
	C690.875671,526.558472 724.208801,526.535461 757.541260,526.578430 
	C758.444702,526.579590 759.348328,526.373779 759.711975,526.329834 
	C759.711975,519.572632 759.711975,513.261230 759.711975,506.656647 
	C759.860474,506.675262 759.235596,506.527618 758.610962,506.528442 
	C721.278320,506.578186 683.945557,506.614594 646.613037,506.723724 
	C639.575806,506.744293 636.293640,509.324860 634.437622,516.155029 
	C631.557739,526.752869 628.837463,537.393982 626.018494,548.008545 
	C621.948486,563.333740 617.850586,578.651611 613.764587,593.972595 
	C613.426147,593.975403 613.087708,593.978149 612.749268,593.980957 
	C601.703369,554.183044 590.657471,514.385071 579.453064,474.016052 
	C559.577026,487.768707 547.221069,507.199677 532.948914,526.285095 
	C536.758301,526.285095 539.705750,526.290710 542.653259,526.284058 
	C553.011902,526.260742 555.221130,524.548767 557.984802,514.396667 
	C559.663086,508.231689 561.332275,502.064209 563.005493,495.897858 
	C563.481689,495.872925 563.957825,495.848022 564.433960,495.823090 
	C572.857178,525.889709 581.280396,555.956360 589.907104,586.815369 
M626.597168,402.884338 
	C627.610901,403.749664 628.631409,404.607147 629.637207,405.481628 
	C634.406250,409.627808 641.142151,412.659454 638.435974,421.053864 
	C638.302917,421.466614 638.473511,422.117767 638.736023,422.495972 
	C641.523560,426.511261 641.749268,430.559082 638.070435,434.718506 
	C640.375916,435.539001 641.846008,436.062225 643.275452,436.570953 
	C643.923218,435.688721 644.254211,435.099060 644.714355,434.638458 
	C645.919739,433.431885 647.181519,432.281647 648.420837,431.108978 
	C649.072937,432.644745 650.153198,434.142609 650.293030,435.723724 
	C650.647400,439.727325 651.763184,442.733643 656.655334,442.880280 
	C656.429016,439.561218 655.967590,436.407074 656.105408,433.279266 
	C656.173401,431.733612 656.987915,429.879761 658.082458,428.780365 
	C662.464539,424.378754 663.644104,418.353851 660.772156,413.277771 
	C657.992371,408.364563 652.131165,406.604858 645.905640,408.278687 
	C644.226624,408.730042 641.650146,408.310730 640.336365,407.243683 
	C633.099426,401.365845 626.040833,395.257019 619.150208,388.976013 
	C618.051575,387.974609 617.465759,385.580139 617.752502,384.035736 
	C618.886963,377.926270 617.266602,372.886353 612.699341,369.976562 
	C607.902832,366.920776 602.192322,367.606995 597.348877,371.212891 
	C595.801758,372.364685 593.121704,373.180908 591.374084,372.686676 
	C579.050354,369.201385 566.801147,365.436951 554.627136,361.458618 
	C553.112915,360.963776 551.512329,358.856384 551.097046,357.207733 
	C549.487549,350.817963 544.966553,346.830383 538.756714,346.966675 
	C530.540344,347.147064 525.403687,354.398285 527.274719,363.175201 
	C527.981812,366.491882 518.299377,378.930237 515.010498,378.887299 
	C514.534912,378.881104 514.071594,378.561646 513.587830,378.453217 
	C505.203857,376.574097 500.104553,379.582245 497.413055,387.548767 
	C496.903442,389.057129 495.243958,390.845001 493.768372,391.254517 
	C480.628082,394.900726 467.414368,398.283569 454.204956,401.676575 
	C453.282928,401.913391 452.222534,401.611389 451.104675,401.553680 
	C451.352722,400.721863 451.350555,400.320984 451.549896,400.119568 
	C459.751770,391.833801 467.866333,383.455719 476.290710,375.401825 
	C477.732849,374.023163 480.611908,373.272064 482.647614,373.549347 
	C489.511627,374.484192 495.551758,370.834015 497.017181,364.244293 
	C498.516205,357.503418 494.708771,351.423187 488.000641,349.845551 
	C481.229034,348.252991 474.420319,352.214661 473.393646,359.141907 
	C472.888947,362.547119 471.195343,363.470795 468.574768,364.361511 
	C455.663177,368.750031 442.811554,373.320374 429.838379,377.516205 
	C428.077271,378.085815 425.369202,377.489136 423.755096,376.431824 
	C418.216125,372.803558 412.539429,372.912109 408.703857,377.526978 
	C416.976715,377.180847 422.671570,381.302338 426.259155,386.647552 
	C428.736542,384.974091 430.657501,383.049011 432.971008,382.221497 
	C443.466431,378.467590 454.071350,375.019775 464.639435,371.469543 
	C467.568207,370.485657 470.505920,369.528503 474.785156,368.114410 
	C473.225616,370.135834 472.654724,371.061310 471.908844,371.813171 
	C466.276978,377.489960 460.631653,383.153748 454.948486,388.779114 
	C450.747650,392.937225 447.561249,397.693268 439.665680,395.864471 
	C433.285309,394.386688 430.803253,398.810577 432.591187,405.359894 
	C433.380127,408.249756 434.380219,411.124237 434.762207,414.073364 
	C435.405853,419.042542 438.044189,420.323608 442.695282,419.664093 
	C444.177948,419.453827 446.596588,420.367584 447.381439,421.560303 
	C455.158142,433.378601 462.725128,445.336243 470.250031,457.318115 
	C472.514038,460.923035 468.853760,468.389587 464.638550,469.098389 
	C460.137604,469.855164 455.632080,470.584503 450.767578,471.385223 
	C451.540771,473.474182 452.090271,474.958771 452.689423,476.577545 
	C457.459656,475.883331 461.889191,475.162994 466.342102,474.642517 
	C467.495087,474.507721 468.721283,474.999146 469.913849,475.202942 
	C469.648895,476.404449 469.708893,477.828979 469.063538,478.769470 
	C466.049957,483.161194 463.017181,487.563110 459.645386,491.677979 
	C457.128693,494.749268 457.419525,497.423401 459.624786,500.946991 
	C463.446930,495.712097 467.016937,490.916321 470.481659,486.045593 
	C472.964020,482.555786 474.946564,478.463226 480.566284,480.728760 
	C481.603180,481.146790 483.312225,480.649811 484.402740,480.031494 
	C486.942413,478.591400 488.588715,479.511475 490.473816,481.306427 
	C494.746765,485.374939 499.219849,489.233337 503.893738,493.430542 
	C505.103088,491.546173 505.949310,490.227661 506.822357,488.867249 
	C502.414917,484.945343 498.295197,481.318390 494.220123,477.641998 
	C490.456024,474.246185 491.718079,467.334229 496.463226,465.388641 
	C503.699615,462.421753 511.003723,459.615112 518.190308,456.533569 
	C523.394958,454.301880 528.495483,451.075928 532.523071,457.803955 
	C537.734070,453.701233 542.540344,450.132019 547.041321,446.212189 
	C548.081116,445.306671 548.602234,443.133423 548.412048,441.666748 
	C548.199341,440.027557 546.905334,438.528564 546.126770,437.053436 
	C549.190796,432.201202 552.437500,427.719971 554.967834,422.865356 
	C557.462036,418.080017 560.429932,416.013519 565.874634,419.263458 
	C566.887939,423.618042 568.010376,428.441437 569.235657,433.706787 
	C571.187012,432.895721 572.769165,432.238159 573.755066,431.828400 
	C575.341431,425.292694 567.053162,418.812469 575.291870,413.328156 
	C578.674561,414.863708 581.943481,416.475006 585.312744,417.838470 
	C588.225586,419.017303 590.564148,420.179535 590.319824,424.108765 
	C590.124512,427.249390 592.142090,428.071259 595.310608,427.678986 
	C599.242981,427.192108 603.281555,427.258179 607.253845,427.469910 
	C613.279480,427.791168 615.578552,425.744537 613.967712,419.804291 
	C613.134277,416.730774 610.339417,414.205505 608.517639,411.376526 
	C607.662842,410.049225 606.382507,408.584259 606.394043,407.190796 
	C606.424377,403.546021 606.746033,399.831482 607.588074,396.296356 
	C608.002869,394.554962 609.544312,392.622223 611.114197,391.783386 
	C612.098083,391.257629 614.379333,392.234039 615.563110,393.180847 
	C619.199951,396.089569 622.588501,399.308838 626.597168,402.884338 
M458.089813,660.254272 
	C461.738220,661.413818 465.345947,662.730713 469.046661,663.687988 
	C472.648346,664.619751 474.820435,665.979980 475.552795,670.313599 
	C476.663452,676.885498 483.219330,680.497253 489.583160,679.129089 
	C495.780334,677.796875 500.806641,671.798584 498.957581,665.964722 
	C497.246643,660.566772 499.729919,658.009827 502.895996,655.033630 
	C504.594727,653.436829 506.280182,651.813782 507.837036,650.081543 
	C509.551727,648.173645 511.125122,647.554810 513.893738,648.483337 
	C521.339172,650.980469 527.813904,647.397400 529.508850,639.756226 
	C530.156067,636.838501 531.568542,636.137451 533.997498,635.514832 
	C546.575317,632.290283 559.114380,628.914734 571.676331,625.627625 
	C572.673340,625.366821 573.741577,625.378540 576.078552,625.119019 
	C574.213196,627.265442 573.241760,628.524475 572.128174,629.641846 
	C564.835083,636.959717 557.459900,644.196655 550.231628,651.577637 
	C548.295532,653.554565 546.674805,654.174927 543.741577,653.360840 
	C536.744202,651.419006 530.445679,655.255676 529.027283,661.660706 
	C527.555786,668.306091 531.354736,674.632263 537.834961,676.327576 
	C544.623535,678.103577 551.160522,674.388916 552.518250,667.257568 
	C553.117432,664.110352 554.721985,663.223999 557.195862,662.410400 
	C569.216370,658.456848 581.217773,654.444824 593.217773,650.429199 
	C594.855103,649.881348 596.446655,649.196655 597.906433,648.634216 
	C596.991516,644.194397 594.716064,644.083679 591.514221,645.196716 
	C581.141174,648.802490 570.711914,652.247498 560.287292,655.703064 
	C558.191833,656.397766 556.021667,656.867310 552.732605,657.750244 
	C553.910034,655.933105 554.239258,655.176025 554.780151,654.627869 
	C562.152893,647.156616 569.469482,639.625183 577.045227,632.364502 
	C578.136963,631.318115 580.500122,631.426331 582.293457,631.323608 
	C585.084229,631.163818 587.890930,631.281433 591.086121,631.281433 
	C588.713135,622.938232 586.630066,615.614258 584.546997,608.290222 
	C584.212952,608.548035 583.878906,608.805908 583.544861,609.063782 
	C581.937012,607.887085 579.815491,607.043274 578.803162,605.480774 
	C571.197632,593.741821 563.786133,581.876465 556.399536,569.997437 
	C555.775513,568.993958 555.205566,567.373413 555.583801,566.429443 
	C557.395386,561.907959 558.931030,556.903687 565.587891,557.718079 
	C566.953003,557.885071 568.431396,557.125305 570.179382,556.717712 
	C569.868958,555.013733 569.615417,553.621826 569.277466,551.766846 
	C566.016663,552.215027 563.097290,552.805420 560.157959,552.931885 
	C558.891418,552.986450 557.208740,552.400574 556.433350,551.492310 
	C555.959412,550.937134 556.571106,549.044373 557.181519,548.051270 
	C559.010193,545.076233 561.426575,542.416382 562.928101,539.302917 
	C563.903259,537.280884 563.680725,534.681274 563.994812,532.340454 
	C563.419067,532.237793 562.843323,532.135193 562.267578,532.032532 
	C558.532654,536.904114 554.797729,541.775696 551.770386,545.724365 
	C547.358826,546.417908 543.860657,547.134583 540.327209,547.430359 
	C539.134094,547.530334 537.588379,546.860352 536.657104,546.032349 
	C533.207886,542.965210 529.947815,539.685364 526.432800,536.308716 
	C524.988953,537.863953 523.887878,539.049988 522.422791,540.628052 
	C525.749695,543.708740 528.908813,546.612732 532.043823,549.542725 
	C535.859741,553.109009 535.105164,559.005798 530.307556,561.105652 
	C521.318420,565.040161 512.257080,568.823792 503.111877,572.376953 
	C501.081543,573.165833 498.578552,572.738220 496.293182,572.870728 
	C496.233215,572.510071 496.173218,572.149414 496.113220,571.788757 
	C490.223389,576.360596 484.333557,580.932434 478.205017,585.689575 
	C481.434296,588.985413 479.856476,591.754272 477.438843,594.719910 
	C474.708527,598.069214 472.176819,601.616882 469.907349,605.293457 
	C468.178680,608.093872 466.025696,609.605896 463.083832,607.984375 
	C461.410461,607.062012 460.031830,605.135925 459.159210,603.349792 
	C458.098022,601.177734 457.709167,598.677185 456.925018,595.956116 
	C455.059052,596.663513 453.631989,597.204529 452.149078,597.766724 
	C453.003296,601.135559 453.802216,604.014038 454.454376,606.925415 
	C455.307098,610.732361 452.566284,613.265320 448.803070,612.004272 
	C444.241730,610.475769 439.769104,608.682678 435.395111,607.055054 
	C435.075378,604.676025 434.799500,602.623352 434.606232,601.185486 
	C426.745636,600.644836 419.535706,600.148987 412.221741,599.645935 
	C410.155762,604.585449 410.432587,609.643860 414.674255,612.807312 
	C418.913696,615.969116 419.472809,619.328613 418.386993,623.842346 
	C418.002808,625.439575 418.405396,627.245056 417.929779,628.796326 
	C417.372803,630.612854 416.614227,633.198608 415.272644,633.717590 
	C413.833740,634.274231 411.258148,633.280151 409.799683,632.156555 
	C403.732056,627.482117 397.874664,622.532410 391.988159,617.626038 
	C388.529846,614.743591 383.896820,612.404785 386.614075,606.439697 
	C386.952423,605.696960 386.566833,604.365540 386.092560,603.555115 
	C383.696960,599.461243 383.076691,595.433105 387.009583,591.271790 
	C384.746338,590.403076 383.313721,589.853210 382.184113,589.419617 
	C380.257690,591.673767 378.720978,593.471924 376.756561,595.770569 
	C373.215668,590.794373 376.589233,582.530273 368.174316,581.504517 
	C368.591217,584.840210 369.305298,588.134888 369.296539,591.427673 
	C369.291595,593.280334 368.595337,595.624817 367.344086,596.892822 
	C362.623108,601.677002 361.304840,607.433533 364.266724,612.709900 
	C367.104492,617.765198 372.966614,619.536316 379.546356,617.597595 
	C380.904083,617.197510 383.000031,617.130188 383.962097,617.900574 
	C392.396393,624.654663 400.650574,631.633606 408.879578,638.480469 
	C406.294006,646.807617 407.407440,651.867188 412.429749,655.215210 
	C417.444824,658.558411 422.113434,657.731567 428.706940,652.750183 
	C429.711029,651.991516 431.732452,651.944885 433.051331,652.341125 
	C441.179352,654.783203 449.240784,657.446838 458.089813,660.254272 
M443.213257,588.754761 
	C461.226471,585.401733 476.526489,576.571777 488.667114,563.339172 
	C501.797455,549.027832 513.959534,533.767883 525.798828,518.349548 
	C537.147766,503.569794 547.200439,487.801117 561.117371,475.106934 
	C582.514099,455.590179 607.054565,449.322327 635.122009,456.859589 
	C651.954773,461.379852 666.778809,470.123566 681.776489,478.660156 
	C681.865173,478.215363 682.083496,477.803833 681.960571,477.618713 
	C681.419067,476.802673 680.845154,475.987762 680.164917,475.287018 
	C667.720581,462.467926 653.435181,452.180847 636.946289,445.307007 
	C607.202271,432.907410 579.085876,435.998413 552.906311,455.084778 
	C541.354553,463.506622 531.784546,473.875366 523.138184,485.164520 
	C507.957825,504.984589 493.497650,525.411011 477.432648,544.485901 
	C453.329590,573.104858 423.094818,581.053162 387.975586,568.419678 
	C375.236389,563.836975 363.426208,556.674683 351.180603,550.713074 
	C349.702393,549.993408 348.151764,549.422607 346.634674,548.782776 
	C346.268738,549.393738 345.902771,550.004639 345.536804,550.615540 
	C357.834015,559.333679 369.682129,568.791809 382.536011,576.592651 
	C400.806732,587.680908 420.817230,592.607483 443.213257,588.754761 
M645.390747,495.234039 
	C645.507202,493.785645 645.864014,492.308014 645.692139,490.894653 
	C645.282959,487.528778 645.741211,483.170532 643.819336,481.071259 
	C640.445435,477.386017 640.528015,473.917908 641.810730,469.598938 
	C640.265869,469.023804 638.954590,468.535614 637.518799,468.001068 
	C637.126526,468.882172 636.893066,469.492432 636.591797,470.067078 
	C635.638428,471.885284 634.659790,473.690216 633.690918,475.500305 
	C632.245605,473.847900 630.782227,472.210724 629.369263,470.531097 
	C629.058838,470.162048 628.874268,469.659424 628.722534,469.189056 
	C627.611145,465.745361 625.552185,463.948151 621.520935,465.084808 
	C622.025757,466.402344 622.458984,467.639618 622.968628,468.844543 
	C624.929749,473.480682 628.488586,477.921356 623.276794,482.942352 
	C622.150146,484.027710 622.383118,486.729828 622.340332,488.694855 
	C622.229187,493.791779 614.305664,498.684753 609.687317,496.778717 
	C607.207336,495.755219 604.265076,495.319427 601.578735,495.469055 
	C598.522705,495.639313 596.992065,497.264038 598.244507,500.912048 
	C599.910828,505.765594 600.748718,510.899261 602.299561,515.799561 
	C602.713867,517.108948 604.925903,519.148926 605.468689,518.912903 
	C609.913696,516.979797 611.745483,520.164368 613.977234,522.730225 
	C615.697571,524.708130 617.441711,526.665344 619.335510,528.813538 
	C621.479919,525.583923 621.407288,523.098206 618.895325,520.546509 
	C615.754822,517.356140 612.582214,514.069946 615.610718,508.963562 
	C616.124207,508.097839 615.535217,506.644623 615.768860,505.528381 
	C616.014709,504.353638 616.312195,502.738892 617.149353,502.215393 
	C621.156921,499.709259 624.457031,494.755707 630.502441,498.819824 
	C632.148499,499.926422 635.351929,499.154327 637.710754,498.644135 
	C640.251587,498.094635 642.639954,496.840179 645.390747,495.234039 
M410.369690,537.894592 
	C407.502869,539.229370 404.608032,540.507751 401.776489,541.913635 
	C398.442200,543.569153 395.424652,545.336731 392.182800,541.257141 
	C391.123535,539.924194 388.174042,540.134277 386.118988,539.535706 
	C384.956451,539.197144 383.840363,538.682068 382.729156,538.188416 
	C381.020721,537.429443 379.334534,536.620544 378.687347,536.319946 
	C377.019440,540.144958 375.714020,542.666565 374.823608,545.327026 
	C374.083771,547.537476 371.100250,550.305542 375.002716,552.094238 
	C381.589935,555.113525 388.382477,557.684875 395.676971,560.686707 
	C396.697632,557.217896 397.418549,554.536377 398.292755,551.905884 
	C398.663055,550.791748 399.087616,549.239319 399.945312,548.817993 
	C405.278778,546.197998 410.742126,543.842529 414.322388,542.228699 
	C427.087219,545.703613 423.889130,554.966309 423.967102,563.042542 
	C425.979767,562.834473 427.411011,562.686523 429.255707,562.495789 
	C430.606781,537.551819 419.896393,518.253174 402.817719,501.656891 
	C400.490417,505.254425 401.389069,508.225586 404.069824,511.336334 
	C408.615021,516.610535 412.832336,522.167297 417.640808,528.171387 
	C415.401611,531.359497 413.229462,534.452087 410.369690,537.894592 
M645.173340,597.749390 
	C643.726013,601.520264 642.278687,605.291077 640.831360,609.061951 
	C641.288574,609.276489 641.745789,609.491089 642.203003,609.705627 
	C645.582092,605.852600 648.785767,601.820251 652.438782,598.247375 
	C653.656799,597.056091 656.137695,596.340149 657.847473,596.614502 
	C663.992126,597.600647 669.664307,595.130371 671.997375,589.885376 
	C674.471436,584.323608 672.703674,577.990540 667.080566,574.764771 
	C664.105774,573.058228 663.462097,571.080872 663.526245,567.993958 
	C663.709412,559.172974 663.651367,550.346436 663.624146,541.522217 
	C663.619080,539.894104 663.314392,538.266907 663.148010,536.639282 
	C662.616333,536.588135 662.084656,536.537048 661.552979,536.485962 
	C661.029602,537.902832 660.161133,539.290771 660.039490,540.741333 
	C659.292725,549.645203 658.568604,558.556030 658.129272,567.478943 
	C657.804504,574.072815 657.954529,574.118408 651.221985,571.838135 
	C650.484985,576.838684 648.435608,582.012268 649.397644,586.546814 
	C650.468445,591.593506 648.934570,594.355347 645.173340,597.749390 
M374.031952,439.692108 
	C374.540771,438.531525 375.034393,437.364044 375.561157,436.211670 
	C377.240631,432.537567 378.932404,428.869171 380.619415,425.198547 
	C380.142029,424.947083 379.664642,424.695618 379.187256,424.444153 
	C377.042206,426.720184 374.805847,428.918365 372.778931,431.295105 
	C370.907135,433.489899 369.158417,434.493103 365.952026,433.586426 
	C360.135681,431.941772 354.335114,435.189636 352.119568,440.583710 
	C349.786377,446.264221 351.610809,452.852905 357.015564,455.771271 
	C360.000549,457.383118 360.815216,459.187958 360.750763,462.370361 
	C360.553833,472.092682 360.679260,481.821503 360.679260,491.547791 
	C362.131256,490.826813 362.470337,489.962372 362.837433,489.110016 
	C366.505219,480.593201 366.269379,471.592804 365.921844,462.630829 
	C365.749664,458.192200 366.488739,455.319885 372.698456,457.608063 
	C373.279144,451.448853 373.797058,445.955566 374.031952,439.692108 
M780.402832,531.195679 
	C786.819092,532.497009 791.996582,530.376038 795.517395,525.006775 
	C798.807312,519.989685 798.791809,514.549377 795.535095,509.479431 
	C792.389465,504.582428 787.619873,502.485229 781.844604,503.032471 
	C775.440125,503.639313 770.107788,508.932587 769.205994,515.328369 
	C768.287292,521.843079 772.278625,527.848572 780.402832,531.195679 
M228.254990,519.923157 
	C228.718643,521.160950 229.067215,522.457642 229.664856,523.626953 
	C233.210754,530.564819 241.375366,533.376770 248.309448,530.102417 
	C255.306000,526.798584 258.389923,518.799805 255.418274,511.664337 
	C252.727570,505.203522 245.996140,501.619781 239.236496,503.049377 
	C232.186340,504.540405 227.981339,510.613617 228.254990,519.923157 
z"/>
<path fill="#23A2EE" opacity="1.000000" stroke="none" 
	d="
M518.731262,303.115356 
	C455.520142,302.656982 401.839386,324.225952 358.628632,369.984863 
	C326.377869,404.137482 308.051727,445.023865 302.831146,491.741669 
	C302.703400,492.884979 302.506409,494.020599 302.290741,495.512207 
	C297.784790,495.512207 293.394806,495.512207 288.999481,495.512207 
	C292.931824,408.044861 365.367310,301.643585 492.229858,290.159271 
	C626.069763,278.043335 729.608521,380.862488 737.068726,495.671967 
	C732.660889,495.671967 728.269897,495.671967 724.178833,495.671967 
	C721.796204,483.451599 720.445129,471.113403 716.941345,459.420258 
	C692.195374,376.835510 637.557495,325.896515 553.397888,307.101257 
	C542.259033,304.613617 530.613892,304.392914 518.731262,303.115356 
z"/>
<path fill="#24A2EE" opacity="1.000000" stroke="none" 
	d="
M634.453735,684.491760 
	C659.147949,666.992920 679.158203,645.651733 694.446960,619.896362 
	C709.611938,594.349609 719.073120,566.837708 722.971619,537.002563 
	C725.523621,537.002563 727.820923,537.002563 730.118164,537.002563 
	C732.244873,537.002563 734.371582,537.002563 736.522217,537.002563 
	C728.092957,632.419006 645.871399,733.240417 518.938782,736.467163 
	C393.315369,739.660645 300.251068,644.634766 289.230499,537.458984 
	C293.509064,537.458984 297.761536,537.458984 302.400604,537.458984 
	C304.177216,545.793518 305.804138,554.401855 307.857513,562.907227 
	C327.661713,644.938843 397.398773,708.284485 481.221222,720.146790 
	C536.696228,727.997437 587.787598,716.389954 634.453735,684.491760 
z"/>
<path fill="#1A2A5C" opacity="1.000000" stroke="none" 
	d="
M385.926819,444.699341 
	C390.102722,429.038055 394.189178,413.775360 398.287506,398.515869 
	C400.294464,391.043091 403.422546,388.031219 409.020691,388.136719 
	C414.389099,388.237885 417.642853,391.357513 419.565063,398.290741 
	C432.050659,443.325378 444.528229,488.362274 457.021362,533.394836 
	C457.763947,536.071472 458.618347,538.717041 460.565979,541.544861 
	C462.107758,536.809570 463.673706,532.081909 465.182892,527.336182 
	C466.190613,524.167297 467.124969,520.974976 468.079224,517.789307 
	C470.850647,508.537537 473.805664,506.386261 483.571167,506.476410 
	C486.862640,506.506775 490.154633,506.481171 494.721283,506.481171 
	C479.138092,526.533813 465.872040,546.987488 442.541443,558.438904 
	C431.567383,518.493591 420.734894,479.063782 409.902435,439.633942 
	C409.447571,439.644745 408.992676,439.655518 408.537781,439.666321 
	C405.708435,449.829712 402.826172,459.978729 400.062073,470.159851 
	C395.879089,485.567078 391.856689,501.018280 387.608551,516.407288 
	C385.592896,523.709045 382.277893,526.358643 374.672760,526.389648 
	C338.693146,526.536133 302.712921,526.529053 266.732910,526.560303 
	C266.275787,526.560730 265.818481,526.346924 265.978333,526.386719 
	C265.978333,519.889465 265.978333,513.630066 265.978333,506.774445 
	C267.046753,506.774445 268.975952,506.773315 270.905121,506.774597 
	C302.054779,506.795654 333.205048,506.732483 364.353424,506.943146 
	C368.332092,506.970062 369.747711,505.633148 370.691772,501.978180 
	C375.598572,482.981506 380.765747,464.052094 385.926819,444.699341 
z"/>
<path fill="#1A295B" opacity="1.000000" stroke="none" 
	d="
M589.805359,586.419189 
	C581.280396,555.956360 572.857178,525.889709 564.433960,495.823090 
	C563.957825,495.848022 563.481689,495.872925 563.005493,495.897858 
	C561.332275,502.064209 559.663086,508.231689 557.984802,514.396667 
	C555.221130,524.548767 553.011902,526.260742 542.653259,526.284058 
	C539.705750,526.290710 536.758301,526.285095 532.948914,526.285095 
	C547.221069,507.199677 559.577026,487.768707 579.453064,474.016052 
	C590.657471,514.385071 601.703369,554.183044 612.749268,593.980957 
	C613.087708,593.978149 613.426147,593.975403 613.764587,593.972595 
	C617.850586,578.651611 621.948486,563.333740 626.018494,548.008545 
	C628.837463,537.393982 631.557739,526.752869 634.437622,516.155029 
	C636.293640,509.324860 639.575806,506.744293 646.613037,506.723724 
	C683.945557,506.614594 721.278320,506.578186 758.610962,506.528442 
	C759.235596,506.527618 759.860474,506.675262 759.711975,506.656647 
	C759.711975,513.261230 759.711975,519.572632 759.711975,526.329834 
	C759.348328,526.373779 758.444702,526.579590 757.541260,526.578430 
	C724.208801,526.535461 690.875671,526.558472 657.544739,526.301819 
	C653.551697,526.271118 652.138977,527.622070 651.191711,531.224426 
	C642.222046,565.337646 633.173706,599.430969 623.901001,633.462708 
	C623.047180,636.596191 621.112793,640.118225 618.588318,641.977600 
	C612.511841,646.453369 605.176147,642.909546 603.005432,634.984314 
	C598.609680,618.936096 594.269958,602.872559 589.805359,586.419189 
z"/>
<path fill="#27A5F0" opacity="1.000000" stroke="none" 
	d="
M626.335327,402.645874 
	C622.588501,399.308838 619.199951,396.089569 615.563110,393.180847 
	C614.379333,392.234039 612.098083,391.257629 611.114197,391.783386 
	C609.544312,392.622223 608.002869,394.554962 607.588074,396.296356 
	C606.746033,399.831482 606.424377,403.546021 606.394043,407.190796 
	C606.382507,408.584259 607.662842,410.049225 608.517639,411.376526 
	C610.339417,414.205505 613.134277,416.730774 613.967712,419.804291 
	C615.578552,425.744537 613.279480,427.791168 607.253845,427.469910 
	C603.281555,427.258179 599.242981,427.192108 595.310608,427.678986 
	C592.142090,428.071259 590.124512,427.249390 590.319824,424.108765 
	C590.564148,420.179535 588.225586,419.017303 585.312744,417.838470 
	C581.943481,416.475006 578.674561,414.863708 575.291870,413.328156 
	C567.053162,418.812469 575.341431,425.292694 573.755066,431.828400 
	C572.769165,432.238159 571.187012,432.895721 569.235657,433.706787 
	C568.010376,428.441437 566.887939,423.618042 565.874634,419.263458 
	C560.429932,416.013519 557.462036,418.080017 554.967834,422.865356 
	C552.437500,427.719971 549.190796,432.201202 546.126770,437.053436 
	C546.905334,438.528564 548.199341,440.027557 548.412048,441.666748 
	C548.602234,443.133423 548.081116,445.306671 547.041321,446.212189 
	C542.540344,450.132019 537.734070,453.701233 532.523071,457.803955 
	C528.495483,451.075928 523.394958,454.301880 518.190308,456.533569 
	C511.003723,459.615112 503.699615,462.421753 496.463226,465.388641 
	C491.718079,467.334229 490.456024,474.246185 494.220123,477.641998 
	C498.295197,481.318390 502.414917,484.945343 506.822357,488.867249 
	C505.949310,490.227661 505.103088,491.546173 503.893738,493.430542 
	C499.219849,489.233337 494.746765,485.374939 490.473816,481.306427 
	C488.588715,479.511475 486.942413,478.591400 484.402740,480.031494 
	C483.312225,480.649811 481.603180,481.146790 480.566284,480.728760 
	C474.946564,478.463226 472.964020,482.555786 470.481659,486.045593 
	C467.016937,490.916321 463.446930,495.712097 459.624786,500.946991 
	C457.419525,497.423401 457.128693,494.749268 459.645386,491.677979 
	C463.017181,487.563110 466.049957,483.161194 469.063538,478.769470 
	C469.708893,477.828979 469.648895,476.404449 469.913849,475.202942 
	C468.721283,474.999146 467.495087,474.507721 466.342102,474.642517 
	C461.889191,475.162994 457.459656,475.883331 452.689423,476.577545 
	C452.090271,474.958771 451.540771,473.474182 450.767578,471.385223 
	C455.632080,470.584503 460.137604,469.855164 464.638550,469.098389 
	C468.853760,468.389587 472.514038,460.923035 470.250031,457.318115 
	C462.725128,445.336243 455.158142,433.378601 447.381439,421.560303 
	C446.596588,420.367584 444.177948,419.453827 442.695282,419.664093 
	C438.044189,420.323608 435.405853,419.042542 434.762207,414.073364 
	C434.380219,411.124237 433.380127,408.249756 432.591187,405.359894 
	C430.803253,398.810577 433.285309,394.386688 439.665680,395.864471 
	C447.561249,397.693268 450.747650,392.937225 454.948486,388.779114 
	C460.631653,383.153748 466.276978,377.489960 471.908844,371.813171 
	C472.654724,371.061310 473.225616,370.135834 474.785156,368.114410 
	C470.505920,369.528503 467.568207,370.485657 464.639435,371.469543 
	C454.071350,375.019775 443.466431,378.467590 432.971008,382.221497 
	C430.657501,383.049011 428.736542,384.974091 426.259155,386.647552 
	C422.671570,381.302338 416.976715,377.180847 408.703857,377.526978 
	C412.539429,372.912109 418.216125,372.803558 423.755096,376.431824 
	C425.369202,377.489136 428.077271,378.085815 429.838379,377.516205 
	C442.811554,373.320374 455.663177,368.750031 468.574768,364.361511 
	C471.195343,363.470795 472.888947,362.547119 473.393646,359.141907 
	C474.420319,352.214661 481.229034,348.252991 488.000641,349.845551 
	C494.708771,351.423187 498.516205,357.503418 497.017181,364.244293 
	C495.551758,370.834015 489.511627,374.484192 482.647614,373.549347 
	C480.611908,373.272064 477.732849,374.023163 476.290710,375.401825 
	C467.866333,383.455719 459.751770,391.833801 451.549896,400.119568 
	C451.350555,400.320984 451.352722,400.721863 451.104675,401.553680 
	C452.222534,401.611389 453.282928,401.913391 454.204956,401.676575 
	C467.414368,398.283569 480.628082,394.900726 493.768372,391.254517 
	C495.243958,390.845001 496.903442,389.057129 497.413055,387.548767 
	C500.104553,379.582245 505.203857,376.574097 513.587830,378.453217 
	C514.071594,378.561646 514.534912,378.881104 515.010498,378.887299 
	C518.299377,378.930237 527.981812,366.491882 527.274719,363.175201 
	C525.403687,354.398285 530.540344,347.147064 538.756714,346.966675 
	C544.966553,346.830383 549.487549,350.817963 551.097046,357.207733 
	C551.512329,358.856384 553.112915,360.963776 554.627136,361.458618 
	C566.801147,365.436951 579.050354,369.201385 591.374084,372.686676 
	C593.121704,373.180908 595.801758,372.364685 597.348877,371.212891 
	C602.192322,367.606995 607.902832,366.920776 612.699341,369.976562 
	C617.266602,372.886353 618.886963,377.926270 617.752502,384.035736 
	C617.465759,385.580139 618.051575,387.974609 619.150208,388.976013 
	C626.040833,395.257019 633.099426,401.365845 640.336365,407.243683 
	C641.650146,408.310730 644.226624,408.730042 645.905640,408.278687 
	C652.131165,406.604858 657.992371,408.364563 660.772156,413.277771 
	C663.644104,418.353851 662.464539,424.378754 658.082458,428.780365 
	C656.987915,429.879761 656.173401,431.733612 656.105408,433.279266 
	C655.967590,436.407074 656.429016,439.561218 656.655334,442.880280 
	C651.763184,442.733643 650.647400,439.727325 650.293030,435.723724 
	C650.153198,434.142609 649.072937,432.644745 648.420837,431.108978 
	C647.181519,432.281647 645.919739,433.431885 644.714355,434.638458 
	C644.254211,435.099060 643.923218,435.688721 643.275452,436.570953 
	C641.846008,436.062225 640.375916,435.539001 638.070435,434.718506 
	C641.749268,430.559082 641.523560,426.511261 638.736023,422.495972 
	C638.473511,422.117767 638.302917,421.466614 638.435974,421.053864 
	C641.142151,412.659454 634.406250,409.627808 629.637207,405.481628 
	C628.631409,404.607147 627.610901,403.749664 626.335327,402.645874 
M488.000092,398.499329 
	C477.567993,401.277374 467.121460,404.002838 456.710236,406.856964 
	C451.966003,408.157593 449.456848,414.310059 452.003479,418.369659 
	C459.598236,430.476532 467.204712,442.578033 475.032959,454.533478 
	C475.859070,455.795074 478.228699,456.713806 479.801086,456.606110 
	C481.042267,456.521118 482.745636,454.828918 483.241089,453.481812 
	C489.317719,436.959412 495.268616,420.389557 501.044739,403.760010 
	C501.545929,402.317017 500.952362,400.175751 500.205322,398.692139 
	C499.099213,396.495575 497.315887,395.257996 494.516846,396.618134 
	C492.755615,397.473999 490.699585,397.723236 488.000092,398.499329 
M524.558289,427.993500 
	C520.816101,420.193451 517.154785,412.352417 513.243530,404.638031 
	C512.664368,403.495819 510.884857,402.288452 509.696533,402.323578 
	C508.571747,402.356842 506.914368,403.771088 506.482880,404.943024 
	C500.333252,421.645416 494.298737,438.391205 488.433136,455.195160 
	C487.968323,456.526703 488.458588,458.861908 489.416016,459.825195 
	C490.316528,460.731262 492.673492,461.076080 493.959045,460.571259 
	C503.244080,456.924957 512.424744,453.011932 521.623169,449.147003 
	C522.668762,448.707642 524.424683,448.121887 524.489197,447.469360 
	C525.106995,441.223328 531.172729,435.035706 524.558289,427.993500 
M531.580261,430.067017 
	C534.541809,435.761444 540.180298,436.170990 543.642578,430.934448 
	C546.764709,426.212341 549.939514,421.523132 552.964905,416.739655 
	C555.806458,412.246979 553.194824,405.374756 548.183105,403.849762 
	C540.862854,401.622406 533.432068,399.696533 526.261230,397.062836 
	C521.801208,395.424805 519.021240,396.049713 517.434082,400.599884 
	C522.014099,410.177643 526.608704,419.785858 531.580261,430.067017 
M559.169067,389.372894 
	C560.552124,392.711029 562.603638,394.754913 566.672791,394.293762 
	C568.146240,394.126770 569.731140,395.478455 571.330139,395.739136 
	C573.048157,396.019196 575.206055,396.479706 576.538452,395.732239 
	C581.450989,392.976257 586.178406,389.863098 590.798584,386.631531 
	C592.026367,385.772827 593.546387,383.796661 593.295227,382.713013 
	C592.903015,381.020966 591.400024,378.790924 589.871460,378.283417 
	C577.441406,374.156525 564.905518,370.346069 552.368469,366.549225 
	C551.293030,366.223541 549.174316,366.336273 548.939819,366.865509 
	C548.449585,367.971924 548.459595,369.719879 549.027161,370.805359 
	C552.178589,376.832184 555.558716,382.739441 559.169067,389.372894 
M554.540283,391.992340 
	C551.296265,385.998260 548.111389,379.970734 544.757385,374.038818 
	C544.101074,372.878052 542.887390,371.393433 541.765076,371.235443 
	C532.027527,369.864655 532.016541,369.944946 524.793152,377.810181 
	C524.005249,378.668060 523.211975,379.520966 522.420227,380.375336 
	C519.263123,383.782104 520.907349,390.198517 525.368164,391.550964 
	C533.793457,394.105408 542.302673,396.397339 550.662537,399.146484 
	C553.842102,400.192047 555.726929,399.704071 556.947327,396.515625 
	C556.287354,395.266449 555.592896,393.951965 554.540283,391.992340 
M595.114441,390.032623 
	C589.975464,393.423706 584.811890,396.778381 579.705078,400.217194 
	C575.511169,403.041199 575.752258,407.592499 580.215515,409.699799 
	C584.108154,411.537750 588.071533,413.225922 591.546387,414.776276 
	C594.213501,413.069153 596.496643,411.757172 598.595032,410.196777 
	C599.534790,409.498047 600.540894,408.389587 600.758667,407.313568 
	C601.383667,404.226227 601.443298,401.025452 602.051147,397.933319 
	C603.071594,392.742188 600.824280,390.232880 595.114441,390.032623 
z"/>
<path fill="#28A5EF" opacity="1.000000" stroke="none" 
	d="
M457.707092,660.145508 
	C449.240784,657.446838 441.179352,654.783203 433.051331,652.341125 
	C431.732452,651.944885 429.711029,651.991516 428.706940,652.750183 
	C422.113434,657.731567 417.444824,658.558411 412.429749,655.215210 
	C407.407440,651.867188 406.294006,646.807617 408.879578,638.480469 
	C400.650574,631.633606 392.396393,624.654663 383.962097,617.900574 
	C383.000031,617.130188 380.904083,617.197510 379.546356,617.597595 
	C372.966614,619.536316 367.104492,617.765198 364.266724,612.709900 
	C361.304840,607.433533 362.623108,601.677002 367.344086,596.892822 
	C368.595337,595.624817 369.291595,593.280334 369.296539,591.427673 
	C369.305298,588.134888 368.591217,584.840210 368.174316,581.504517 
	C376.589233,582.530273 373.215668,590.794373 376.756561,595.770569 
	C378.720978,593.471924 380.257690,591.673767 382.184113,589.419617 
	C383.313721,589.853210 384.746338,590.403076 387.009583,591.271790 
	C383.076691,595.433105 383.696960,599.461243 386.092560,603.555115 
	C386.566833,604.365540 386.952423,605.696960 386.614075,606.439697 
	C383.896820,612.404785 388.529846,614.743591 391.988159,617.626038 
	C397.874664,622.532410 403.732056,627.482117 409.799683,632.156555 
	C411.258148,633.280151 413.833740,634.274231 415.272644,633.717590 
	C416.614227,633.198608 417.372803,630.612854 417.929779,628.796326 
	C418.405396,627.245056 418.002808,625.439575 418.386993,623.842346 
	C419.472809,619.328613 418.913696,615.969116 414.674255,612.807312 
	C410.432587,609.643860 410.155762,604.585449 412.221741,599.645935 
	C419.535706,600.148987 426.745636,600.644836 434.606232,601.185486 
	C434.799500,602.623352 435.075378,604.676025 435.395111,607.055054 
	C439.769104,608.682678 444.241730,610.475769 448.803070,612.004272 
	C452.566284,613.265320 455.307098,610.732361 454.454376,606.925415 
	C453.802216,604.014038 453.003296,601.135559 452.149078,597.766724 
	C453.631989,597.204529 455.059052,596.663513 456.925018,595.956116 
	C457.709167,598.677185 458.098022,601.177734 459.159210,603.349792 
	C460.031830,605.135925 461.410461,607.062012 463.083832,607.984375 
	C466.025696,609.605896 468.178680,608.093872 469.907349,605.293457 
	C472.176819,601.616882 474.708527,598.069214 477.438843,594.719910 
	C479.856476,591.754272 481.434296,588.985413 478.205017,585.689575 
	C484.333557,580.932434 490.223389,576.360596 496.113220,571.788757 
	C496.173218,572.149414 496.233215,572.510071 496.293182,572.870728 
	C498.578552,572.738220 501.081543,573.165833 503.111877,572.376953 
	C512.257080,568.823792 521.318420,565.040161 530.307556,561.105652 
	C535.105164,559.005798 535.859741,553.109009 532.043823,549.542725 
	C528.908813,546.612732 525.749695,543.708740 522.422791,540.628052 
	C523.887878,539.049988 524.988953,537.863953 526.432800,536.308716 
	C529.947815,539.685364 533.207886,542.965210 536.657104,546.032349 
	C537.588379,546.860352 539.134094,547.530334 540.327209,547.430359 
	C543.860657,547.134583 547.358826,546.417908 551.770386,545.724365 
	C554.797729,541.775696 558.532654,536.904114 562.267578,532.032532 
	C562.843323,532.135193 563.419067,532.237793 563.994812,532.340454 
	C563.680725,534.681274 563.903259,537.280884 562.928101,539.302917 
	C561.426575,542.416382 559.010193,545.076233 557.181519,548.051270 
	C556.571106,549.044373 555.959412,550.937134 556.433350,551.492310 
	C557.208740,552.400574 558.891418,552.986450 560.157959,552.931885 
	C563.097290,552.805420 566.016663,552.215027 569.277466,551.766846 
	C569.615417,553.621826 569.868958,555.013733 570.179382,556.717712 
	C568.431396,557.125305 566.953003,557.885071 565.587891,557.718079 
	C558.931030,556.903687 557.395386,561.907959 555.583801,566.429443 
	C555.205566,567.373413 555.775513,568.993958 556.399536,569.997437 
	C563.786133,581.876465 571.197632,593.741821 578.803162,605.480774 
	C579.815491,607.043274 581.937012,607.887085 583.544861,609.063782 
	C583.878906,608.805908 584.212952,608.548035 584.546997,608.290222 
	C586.630066,615.614258 588.713135,622.938232 591.086121,631.281433 
	C587.890930,631.281433 585.084229,631.163818 582.293457,631.323608 
	C580.500122,631.426331 578.136963,631.318115 577.045227,632.364502 
	C569.469482,639.625183 562.152893,647.156616 554.780151,654.627869 
	C554.239258,655.176025 553.910034,655.933105 552.732605,657.750244 
	C556.021667,656.867310 558.191833,656.397766 560.287292,655.703064 
	C570.711914,652.247498 581.141174,648.802490 591.514221,645.196716 
	C594.716064,644.083679 596.991516,644.194397 597.906433,648.634216 
	C596.446655,649.196655 594.855103,649.881348 593.217773,650.429199 
	C581.217773,654.444824 569.216370,658.456848 557.195862,662.410400 
	C554.721985,663.223999 553.117432,664.110352 552.518250,667.257568 
	C551.160522,674.388916 544.623535,678.103577 537.834961,676.327576 
	C531.354736,674.632263 527.555786,668.306091 529.027283,661.660706 
	C530.445679,655.255676 536.744202,651.419006 543.741577,653.360840 
	C546.674805,654.174927 548.295532,653.554565 550.231628,651.577637 
	C557.459900,644.196655 564.835083,636.959717 572.128174,629.641846 
	C573.241760,628.524475 574.213196,627.265442 576.078552,625.119019 
	C573.741577,625.378540 572.673340,625.366821 571.676331,625.627625 
	C559.114380,628.914734 546.575317,632.290283 533.997498,635.514832 
	C531.568542,636.137451 530.156067,636.838501 529.508850,639.756226 
	C527.813904,647.397400 521.339172,650.980469 513.893738,648.483337 
	C511.125122,647.554810 509.551727,648.173645 507.837036,650.081543 
	C506.280182,651.813782 504.594727,653.436829 502.895996,655.033630 
	C499.729919,658.009827 497.246643,660.566772 498.957581,665.964722 
	C500.806641,671.798584 495.780334,677.796875 489.583160,679.129089 
	C483.219330,680.497253 476.663452,676.885498 475.552795,670.313599 
	C474.820435,665.979980 472.648346,664.619751 469.046661,663.687988 
	C465.345947,662.730713 461.738220,661.413818 457.707092,660.145508 
M574.831238,609.787964 
	C567.371948,597.792236 559.976685,585.755615 552.373474,573.851807 
	C551.406616,572.338013 549.490540,570.903015 547.770264,570.515991 
	C544.859497,569.861084 543.607422,571.996094 542.665649,574.637756 
	C536.865540,590.906738 530.854614,607.100708 525.082153,623.379272 
	C524.607056,624.718994 524.811646,627.177551 525.703247,627.933472 
	C527.344910,629.325439 529.992981,630.952759 531.767151,630.538025 
	C544.370544,627.591919 556.865784,624.179810 569.379761,620.856873 
	C573.774475,619.689941 575.972961,615.640991 574.831238,609.787964 
M527.142334,568.656616 
	C520.514038,571.351318 513.968323,574.280945 507.226135,576.651672 
	C503.256531,578.047424 500.429840,579.613159 500.950104,584.471313 
	C501.074310,585.631287 499.817291,586.876587 499.624023,588.147766 
	C499.336975,590.035645 498.760986,592.287048 499.474030,593.852661 
	C503.749359,603.240356 508.292908,612.508972 512.927551,621.726562 
	C513.611206,623.086182 515.504089,625.028381 516.399536,624.819946 
	C517.844849,624.483459 519.515747,622.802795 520.070496,621.310425 
	C525.925232,605.560303 531.467834,589.693848 537.366394,573.960693 
	C538.761841,570.238586 539.143921,567.386475 535.019897,565.215393 
	C532.692566,566.216614 530.254333,567.265503 527.142334,568.656616 
M484.380341,593.757935 
	C480.560791,599.217102 476.669342,604.627808 472.946655,610.152222 
	C470.395386,613.938232 473.182617,621.032349 477.526184,622.351013 
	C485.961945,624.911987 494.352814,627.626831 502.830536,630.037964 
	C504.430603,630.493042 507.376617,630.429382 507.885681,629.551758 
	C508.717224,628.118164 508.644623,625.558350 507.923737,623.929260 
	C504.624969,616.474670 500.578217,609.333984 497.563385,601.776123 
	C495.154114,595.736511 491.947784,592.036133 484.380341,593.757935 
M431.187805,643.517029 
	C432.262421,644.699341 433.123474,646.526062 434.444794,646.963928 
	C447.212036,651.194763 460.051361,655.208923 472.886200,659.233765 
	C474.367645,659.698303 475.946991,659.850769 478.741577,660.392212 
	C477.704285,657.829773 477.245178,656.350586 476.534882,655.003845 
	C474.131683,650.447571 471.523590,645.996460 469.213074,641.394958 
	C466.778839,636.547058 464.293030,633.344299 458.011353,631.501099 
	C451.813141,629.682434 448.007538,630.727051 443.413361,633.670105 
	C440.337341,635.640625 436.994263,637.198669 433.950989,639.213623 
	C432.762756,640.000427 432.068085,641.532654 431.187805,643.517029 
M499.785400,634.711975 
	C490.629974,631.888977 481.474548,629.066040 472.447388,626.282593 
	C471.146210,628.056274 470.185059,629.366394 469.269470,630.614502 
	C473.368530,638.144714 477.317871,645.469482 481.356323,652.744751 
	C481.970978,653.851990 483.107574,655.651062 483.817963,655.567078 
	C489.127045,654.939575 495.522491,658.188965 499.257202,651.372375 
	C500.180359,649.687439 501.992889,648.486145 503.410217,647.076233 
	C508.216614,642.295105 506.997223,637.095581 499.785400,634.711975 
M423.914215,621.581665 
	C423.588257,624.556396 423.133881,627.523987 422.968170,630.507629 
	C422.749817,634.439026 426.747162,636.986084 430.186981,635.092896 
	C435.574921,632.127380 440.807129,628.872681 446.249603,626.015381 
	C448.744385,624.705688 449.902161,622.926392 448.905365,620.480713 
	C448.287231,618.963989 446.824982,617.432373 445.348541,616.700012 
	C442.387238,615.231323 439.159058,614.298950 436.036377,613.157898 
	C431.825104,611.619019 424.496948,616.218872 423.914215,621.581665 
M552.960938,657.484558 
	C552.757446,657.414612 552.553894,657.344727 552.350403,657.274780 
	C552.413391,657.468811 552.476379,657.662781 552.960938,657.484558 
z"/>
<path fill="#95E81F" opacity="1.000000" stroke="none" 
	d="
M442.788940,588.826660 
	C420.817230,592.607483 400.806732,587.680908 382.536011,576.592651 
	C369.682129,568.791809 357.834015,559.333679 345.536804,550.615540 
	C345.902771,550.004639 346.268738,549.393738 346.634674,548.782776 
	C348.151764,549.422607 349.702393,549.993408 351.180603,550.713074 
	C363.426208,556.674683 375.236389,563.836975 387.975586,568.419678 
	C423.094818,581.053162 453.329590,573.104858 477.432648,544.485901 
	C493.497650,525.411011 507.957825,504.984589 523.138184,485.164520 
	C531.784546,473.875366 541.354553,463.506622 552.906311,455.084778 
	C579.085876,435.998413 607.202271,432.907410 636.946289,445.307007 
	C653.435181,452.180847 667.720581,462.467926 680.164917,475.287018 
	C680.845154,475.987762 681.419067,476.802673 681.960571,477.618713 
	C682.083496,477.803833 681.865173,478.215363 681.776489,478.660156 
	C666.778809,470.123566 651.954773,461.379852 635.122009,456.859589 
	C607.054565,449.322327 582.514099,455.590179 561.117371,475.106934 
	C547.200439,487.801117 537.147766,503.569794 525.798828,518.349548 
	C513.959534,533.767883 501.797455,549.027832 488.667114,563.339172 
	C476.526489,576.571777 461.226471,585.401733 442.788940,588.826660 
z"/>
<path fill="#2AA6F0" opacity="1.000000" stroke="none" 
	d="
M645.242798,495.563660 
	C642.639954,496.840179 640.251587,498.094635 637.710754,498.644135 
	C635.351929,499.154327 632.148499,499.926422 630.502441,498.819824 
	C624.457031,494.755707 621.156921,499.709259 617.149353,502.215393 
	C616.312195,502.738892 616.014709,504.353638 615.768860,505.528381 
	C615.535217,506.644623 616.124207,508.097839 615.610718,508.963562 
	C612.582214,514.069946 615.754822,517.356140 618.895325,520.546509 
	C621.407288,523.098206 621.479919,525.583923 619.335510,528.813538 
	C617.441711,526.665344 615.697571,524.708130 613.977234,522.730225 
	C611.745483,520.164368 609.913696,516.979797 605.468689,518.912903 
	C604.925903,519.148926 602.713867,517.108948 602.299561,515.799561 
	C600.748718,510.899261 599.910828,505.765594 598.244507,500.912048 
	C596.992065,497.264038 598.522705,495.639313 601.578735,495.469055 
	C604.265076,495.319427 607.207336,495.755219 609.687317,496.778717 
	C614.305664,498.684753 622.229187,493.791779 622.340332,488.694855 
	C622.383118,486.729828 622.150146,484.027710 623.276794,482.942352 
	C628.488586,477.921356 624.929749,473.480682 622.968628,468.844543 
	C622.458984,467.639618 622.025757,466.402344 621.520935,465.084808 
	C625.552185,463.948151 627.611145,465.745361 628.722534,469.189056 
	C628.874268,469.659424 629.058838,470.162048 629.369263,470.531097 
	C630.782227,472.210724 632.245605,473.847900 633.690918,475.500305 
	C634.659790,473.690216 635.638428,471.885284 636.591797,470.067078 
	C636.893066,469.492432 637.126526,468.882172 637.518799,468.001068 
	C638.954590,468.535614 640.265869,469.023804 641.810730,469.598938 
	C640.528015,473.917908 640.445435,477.386017 643.819336,481.071259 
	C645.741211,483.170532 645.282959,487.528778 645.692139,490.894653 
	C645.864014,492.308014 645.507202,493.785645 645.242798,495.563660 
z"/>
<path fill="#28A6F1" opacity="1.000000" stroke="none" 
	d="
M410.713501,537.719604 
	C413.229462,534.452087 415.401611,531.359497 417.640808,528.171387 
	C412.832336,522.167297 408.615021,516.610535 404.069824,511.336334 
	C401.389069,508.225586 400.490417,505.254425 402.817719,501.656891 
	C419.896393,518.253174 430.606781,537.551819 429.255707,562.495789 
	C427.411011,562.686523 425.979767,562.834473 423.967102,563.042542 
	C423.889130,554.966309 427.087219,545.703613 414.322388,542.228699 
	C410.742126,543.842529 405.278778,546.197998 399.945312,548.817993 
	C399.087616,549.239319 398.663055,550.791748 398.292755,551.905884 
	C397.418549,554.536377 396.697632,557.217896 395.676971,560.686707 
	C388.382477,557.684875 381.589935,555.113525 375.002716,552.094238 
	C371.100250,550.305542 374.083771,547.537476 374.823608,545.327026 
	C375.714020,542.666565 377.019440,540.144958 378.687347,536.319946 
	C379.334534,536.620544 381.020721,537.429443 382.729156,538.188416 
	C383.840363,538.682068 384.956451,539.197144 386.118988,539.535706 
	C388.174042,540.134277 391.123535,539.924194 392.182800,541.257141 
	C395.424652,545.336731 398.442200,543.569153 401.776489,541.913635 
	C404.608032,540.507751 407.502869,539.229370 410.713501,537.719604 
z"/>
<path fill="#2DA6F0" opacity="1.000000" stroke="none" 
	d="
M645.423340,597.474854 
	C648.934570,594.355347 650.468445,591.593506 649.397644,586.546814 
	C648.435608,582.012268 650.484985,576.838684 651.221985,571.838135 
	C657.954529,574.118408 657.804504,574.072815 658.129272,567.478943 
	C658.568604,558.556030 659.292725,549.645203 660.039490,540.741333 
	C660.161133,539.290771 661.029602,537.902832 661.552979,536.485962 
	C662.084656,536.537048 662.616333,536.588135 663.148010,536.639282 
	C663.314392,538.266907 663.619080,539.894104 663.624146,541.522217 
	C663.651367,550.346436 663.709412,559.172974 663.526245,567.993958 
	C663.462097,571.080872 664.105774,573.058228 667.080566,574.764771 
	C672.703674,577.990540 674.471436,584.323608 671.997375,589.885376 
	C669.664307,595.130371 663.992126,597.600647 657.847473,596.614502 
	C656.137695,596.340149 653.656799,597.056091 652.438782,598.247375 
	C648.785767,601.820251 645.582092,605.852600 642.203003,609.705627 
	C641.745789,609.491089 641.288574,609.276489 640.831360,609.061951 
	C642.278687,605.291077 643.726013,601.520264 645.423340,597.474854 
z"/>
<path fill="#29A4F0" opacity="1.000000" stroke="none" 
	d="
M374.173462,440.077209 
	C373.797058,445.955566 373.279144,451.448853 372.698456,457.608063 
	C366.488739,455.319885 365.749664,458.192200 365.921844,462.630829 
	C366.269379,471.592804 366.505219,480.593201 362.837433,489.110016 
	C362.470337,489.962372 362.131256,490.826813 360.679260,491.547791 
	C360.679260,481.821503 360.553833,472.092682 360.750763,462.370361 
	C360.815216,459.187958 360.000549,457.383118 357.015564,455.771271 
	C351.610809,452.852905 349.786377,446.264221 352.119568,440.583710 
	C354.335114,435.189636 360.135681,431.941772 365.952026,433.586426 
	C369.158417,434.493103 370.907135,433.489899 372.778931,431.295105 
	C374.805847,428.918365 377.042206,426.720184 379.187256,424.444153 
	C379.664642,424.695618 380.142029,424.947083 380.619415,425.198547 
	C378.932404,428.869171 377.240631,432.537567 375.561157,436.211670 
	C375.034393,437.364044 374.540771,438.531525 374.173462,440.077209 
z"/>
<path fill="#1D2B5C" opacity="1.000000" stroke="none" 
	d="
M780.021729,531.112244 
	C772.278625,527.848572 768.287292,521.843079 769.205994,515.328369 
	C770.107788,508.932587 775.440125,503.639313 781.844604,503.032471 
	C787.619873,502.485229 792.389465,504.582428 795.535095,509.479431 
	C798.791809,514.549377 798.807312,519.989685 795.517395,525.006775 
	C791.996582,530.376038 786.819092,532.497009 780.021729,531.112244 
z"/>
<path fill="#1C2A5A" opacity="1.000000" stroke="none" 
	d="
M228.185577,519.516724 
	C227.981339,510.613617 232.186340,504.540405 239.236496,503.049377 
	C245.996140,501.619781 252.727570,505.203522 255.418274,511.664337 
	C258.389923,518.799805 255.306000,526.798584 248.309448,530.102417 
	C241.375366,533.376770 233.210754,530.564819 229.664856,523.626953 
	C229.067215,522.457642 228.718643,521.160950 228.185577,519.516724 
z"/>
<path fill="#FAFDFD" opacity="1.000000" stroke="none" 
	d="
M488.387939,398.371948 
	C490.699585,397.723236 492.755615,397.473999 494.516846,396.618134 
	C497.315887,395.257996 499.099213,396.495575 500.205322,398.692139 
	C500.952362,400.175751 501.545929,402.317017 501.044739,403.760010 
	C495.268616,420.389557 489.317719,436.959412 483.241089,453.481812 
	C482.745636,454.828918 481.042267,456.521118 479.801086,456.606110 
	C478.228699,456.713806 475.859070,455.795074 475.032959,454.533478 
	C467.204712,442.578033 459.598236,430.476532 452.003479,418.369659 
	C449.456848,414.310059 451.966003,408.157593 456.710236,406.856964 
	C467.121460,404.002838 477.567993,401.277374 488.387939,398.371948 
z"/>
<path fill="#FAFDFD" opacity="1.000000" stroke="none" 
	d="
M524.729553,428.330383 
	C531.172729,435.035706 525.106995,441.223328 524.489197,447.469360 
	C524.424683,448.121887 522.668762,448.707642 521.623169,449.147003 
	C512.424744,453.011932 503.244080,456.924957 493.959045,460.571259 
	C492.673492,461.076080 490.316528,460.731262 489.416016,459.825195 
	C488.458588,458.861908 487.968323,456.526703 488.433136,455.195160 
	C494.298737,438.391205 500.333252,421.645416 506.482880,404.943024 
	C506.914368,403.771088 508.571747,402.356842 509.696533,402.323578 
	C510.884857,402.288452 512.664368,403.495819 513.243530,404.638031 
	C517.154785,412.352417 520.816101,420.193451 524.729553,428.330383 
z"/>
<path fill="#FAFDFD" opacity="1.000000" stroke="none" 
	d="
M531.391724,429.730530 
	C526.608704,419.785858 522.014099,410.177643 517.434082,400.599884 
	C519.021240,396.049713 521.801208,395.424805 526.261230,397.062836 
	C533.432068,399.696533 540.862854,401.622406 548.183105,403.849762 
	C553.194824,405.374756 555.806458,412.246979 552.964905,416.739655 
	C549.939514,421.523132 546.764709,426.212341 543.642578,430.934448 
	C540.180298,436.170990 534.541809,435.761444 531.391724,429.730530 
z"/>
<path fill="#FAFDFD" opacity="1.000000" stroke="none" 
	d="
M559.014771,389.030243 
	C555.558716,382.739441 552.178589,376.832184 549.027161,370.805359 
	C548.459595,369.719879 548.449585,367.971924 548.939819,366.865509 
	C549.174316,366.336273 551.293030,366.223541 552.368469,366.549225 
	C564.905518,370.346069 577.441406,374.156525 589.871460,378.283417 
	C591.400024,378.790924 592.903015,381.020966 593.295227,382.713013 
	C593.546387,383.796661 592.026367,385.772827 590.798584,386.631531 
	C586.178406,389.863098 581.450989,392.976257 576.538452,395.732239 
	C575.206055,396.479706 573.048157,396.019196 571.330139,395.739136 
	C569.731140,395.478455 568.146240,394.126770 566.672791,394.293762 
	C562.603638,394.754913 560.552124,392.711029 559.014771,389.030243 
z"/>
<path fill="#F8FCFC" opacity="1.000000" stroke="none" 
	d="
M554.719360,392.314880 
	C555.592896,393.951965 556.287354,395.266449 556.947327,396.515625 
	C555.726929,399.704071 553.842102,400.192047 550.662537,399.146484 
	C542.302673,396.397339 533.793457,394.105408 525.368164,391.550964 
	C520.907349,390.198517 519.263123,383.782104 522.420227,380.375336 
	C523.211975,379.520966 524.005249,378.668060 524.793152,377.810181 
	C532.016541,369.944946 532.027527,369.864655 541.765076,371.235443 
	C542.887390,371.393433 544.101074,372.878052 544.757385,374.038818 
	C548.111389,379.970734 551.296265,385.998260 554.719360,392.314880 
z"/>
<path fill="#F8FCFC" opacity="1.000000" stroke="none" 
	d="
M595.476440,389.852051 
	C600.824280,390.232880 603.071594,392.742188 602.051147,397.933319 
	C601.443298,401.025452 601.383667,404.226227 600.758667,407.313568 
	C600.540894,408.389587 599.534790,409.498047 598.595032,410.196777 
	C596.496643,411.757172 594.213501,413.069153 591.546387,414.776276 
	C588.071533,413.225922 584.108154,411.537750 580.215515,409.699799 
	C575.752258,407.592499 575.511169,403.041199 579.705078,400.217194 
	C584.811890,396.778381 589.975464,393.423706 595.476440,389.852051 
z"/>
<path fill="#FBFDFE" opacity="1.000000" stroke="none" 
	d="
M575.024780,610.105591 
	C575.972961,615.640991 573.774475,619.689941 569.379761,620.856873 
	C556.865784,624.179810 544.370544,627.591919 531.767151,630.538025 
	C529.992981,630.952759 527.344910,629.325439 525.703247,627.933472 
	C524.811646,627.177551 524.607056,624.718994 525.082153,623.379272 
	C530.854614,607.100708 536.865540,590.906738 542.665649,574.637756 
	C543.607422,571.996094 544.859497,569.861084 547.770264,570.515991 
	C549.490540,570.903015 551.406616,572.338013 552.373474,573.851807 
	C559.976685,585.755615 567.371948,597.792236 575.024780,610.105591 
z"/>
<path fill="#FAFDFD" opacity="1.000000" stroke="none" 
	d="
M527.479248,568.485474 
	C530.254333,567.265503 532.692566,566.216614 535.019897,565.215393 
	C539.143921,567.386475 538.761841,570.238586 537.366394,573.960693 
	C531.467834,589.693848 525.925232,605.560303 520.070496,621.310425 
	C519.515747,622.802795 517.844849,624.483459 516.399536,624.819946 
	C515.504089,625.028381 513.611206,623.086182 512.927551,621.726562 
	C508.292908,612.508972 503.749359,603.240356 499.474030,593.852661 
	C498.760986,592.287048 499.336975,590.035645 499.624023,588.147766 
	C499.817291,586.876587 501.074310,585.631287 500.950104,584.471313 
	C500.429840,579.613159 503.256531,578.047424 507.226135,576.651672 
	C513.968323,574.280945 520.514038,571.351318 527.479248,568.485474 
z"/>
<path fill="#FAFDFD" opacity="1.000000" stroke="none" 
	d="
M484.681641,593.539612 
	C491.947784,592.036133 495.154114,595.736511 497.563385,601.776123 
	C500.578217,609.333984 504.624969,616.474670 507.923737,623.929260 
	C508.644623,625.558350 508.717224,628.118164 507.885681,629.551758 
	C507.376617,630.429382 504.430603,630.493042 502.830536,630.037964 
	C494.352814,627.626831 485.961945,624.911987 477.526184,622.351013 
	C473.182617,621.032349 470.395386,613.938232 472.946655,610.152222 
	C476.669342,604.627808 480.560791,599.217102 484.681641,593.539612 
z"/>
<path fill="#FAFDFD" opacity="1.000000" stroke="none" 
	d="
M431.168213,643.121216 
	C432.068085,641.532654 432.762756,640.000427 433.950989,639.213623 
	C436.994263,637.198669 440.337341,635.640625 443.413361,633.670105 
	C448.007538,630.727051 451.813141,629.682434 458.011353,631.501099 
	C464.293030,633.344299 466.778839,636.547058 469.213074,641.394958 
	C471.523590,645.996460 474.131683,650.447571 476.534882,655.003845 
	C477.245178,656.350586 477.704285,657.829773 478.741577,660.392212 
	C475.946991,659.850769 474.367645,659.698303 472.886200,659.233765 
	C460.051361,655.208923 447.212036,651.194763 434.444794,646.963928 
	C433.123474,646.526062 432.262421,644.699341 431.168213,643.121216 
z"/>
<path fill="#F8FCFC" opacity="1.000000" stroke="none" 
	d="
M500.170410,634.818909 
	C506.997223,637.095581 508.216614,642.295105 503.410217,647.076233 
	C501.992889,648.486145 500.180359,649.687439 499.257202,651.372375 
	C495.522491,658.188965 489.127045,654.939575 483.817963,655.567078 
	C483.107574,655.651062 481.970978,653.851990 481.356323,652.744751 
	C477.317871,645.469482 473.368530,638.144714 469.269470,630.614502 
	C470.185059,629.366394 471.146210,628.056274 472.447388,626.282593 
	C481.474548,629.066040 490.629974,631.888977 500.170410,634.818909 
z"/>
<path fill="#FAFDFD" opacity="1.000000" stroke="none" 
	d="
M423.948730,621.148743 
	C424.496948,616.218872 431.825104,611.619019 436.036377,613.157898 
	C439.159058,614.298950 442.387238,615.231323 445.348541,616.700012 
	C446.824982,617.432373 448.287231,618.963989 448.905365,620.480713 
	C449.902161,622.926392 448.744385,624.705688 446.249603,626.015381 
	C440.807129,628.872681 435.574921,632.127380 430.186981,635.092896 
	C426.747162,636.986084 422.749817,634.439026 422.968170,630.507629 
	C423.133881,627.523987 423.588257,624.556396 423.948730,621.148743 
z"/>
<path fill="#FEFFFF" opacity="1.000000" stroke="none" 
	d="
M552.750122,657.670654 
	C552.476379,657.662781 552.413391,657.468811 552.350403,657.274780 
	C552.553894,657.344727 552.757446,657.414612 552.750122,657.670654 
z"/>
</svg>